<?xml version="1.0" encoding="utf-8"?>
<!-- Generator: Adobe Illustrator 27.8.1, SVG Export Plug-In . SVG Version: 6.00 Build 0)  -->
<svg version="1.1" id="Layer_1" xmlns="http://www.w3.org/2000/svg" xmlns:xlink="http://www.w3.org/1999/xlink" x="0px" y="0px"
	 viewBox="0 0 216.71 138" style="enable-background:new 0 0 216.71 138;" xml:space="preserve">
<style type="text/css">
	.st0{fill:#99AF74;}
	.st1{fill:#162A17;}
	.st2{opacity:0.52;}
	.st3{fill:#010101;}
	.st4{opacity:0.72;fill:#010101;fill-opacity:0.23;enable-background:new    ;}
	.st5{fill:url(#SVGID_1_);stroke:#010101;stroke-width:1.1821;stroke-miterlimit:5;}
	
		.st6{fill:url(#SVGID_00000174602814044857231460000016473304447311886233_);stroke:#010101;stroke-width:1.1821;stroke-miterlimit:5;}
	.st7{fill:#010101;fill-opacity:0.23;}
	.st8{display:none;}
	.st9{display:inline;}
	
		.st10{display:inline;fill:url(#SVGID_00000042697813858933291800000012927693808528699579_);stroke:#010101;stroke-width:1.1821;stroke-miterlimit:5;}
	
		.st11{display:inline;fill:url(#SVGID_00000077301856072581599400000010103557339930615969_);stroke:#010101;stroke-width:1.1821;stroke-miterlimit:5;}
	.st12{display:inline;fill:#010101;}
	.st13{display:inline;opacity:0.52;}
	.st14{display:inline;fill:#010101;fill-opacity:0.23;}
	.st15{display:inline;opacity:0.72;fill:#010101;fill-opacity:0.23;enable-background:new    ;}
	.st16{fill:#99AF74;stroke:#162A17;stroke-width:3.5462;}
	.st17{fill:url(#SVGID_00000063635581086058794830000007301225967236226744_);stroke:#010101;stroke-miterlimit:5;}
	
		.st18{fill:url(#SVGID_00000133519553567764829630000001615380900276333697_);stroke:#010101;stroke-width:0.7205;stroke-miterlimit:5;}
	.st19{fill:url(#SVGID_00000121246115977795921650000016261033229483423121_);}
</style>
<g id="Side_Mouth">
	<g id="croc_normal">
		<g>
			<path class="st0" d="M178.45,100.36c-3.7,0-6.4-0.7-6.5-0.8l-1-0.3l-7.7-28.5l0.1-0.4c0.1-0.3,7.7-31.1,4-41
				c-1.1-2.9-1.1-5-0.1-6.4c0.5-0.7,1.5-1.6,3.4-1.6c4.1,0,10.1,4,12.3,6.1c12.3,11.6,29.3,42,14.6,63.1
				C192.05,98.66,184.15,100.36,178.45,100.36L178.45,100.36z"/>
			<path class="st1" d="M170.75,23.16c3.2,0,8.8,3.4,11.1,5.6c11.7,11,28.5,40.5,14.4,60.8c-5.2,7.5-12.6,9-17.8,9
				c-3.5,0-6-0.7-6-0.7l-7.3-27c0,0,7.8-31.6,4-42.1C167.55,24.66,168.65,23.16,170.75,23.16 M170.75,19.66L170.75,19.66
				c-2.8,0-4.2,1.5-4.8,2.3c-2,2.9-0.6,6.8-0.1,8c2.9,7.8-2,31.5-4.1,40l-0.2,0.9l0.2,0.9l7.3,27.1l0.5,1.9l1.9,0.6
				c0.3,0.1,3.1,0.9,7,0.9c6.1,0,14.6-1.8,20.7-10.5c6.9-9.9,7.9-22.7,2.9-37.1c-4.4-12.7-12.3-23.2-17.8-28.3
				C181.85,23.86,175.35,19.66,170.75,19.66L170.75,19.66z"/>
		</g>
		<g>
			<path class="st0" d="M157.75,130.36c-7,0-12.8-0.1-17.4-0.2l-2.7-0.1l1.1-2.4c3.2-6.9,10.7-10.5,14.2-11.9l-5-12.8l30.3-8.9
				l4.5,36.1h-2C180.65,130.06,169.55,130.36,157.75,130.36L157.75,130.36z"/>
			<path class="st1" d="M176.75,96.26l4,32.1c0,0-11.1,0.2-23,0.2c-6,0-12.2-0.1-17.3-0.2c3.9-8.3,14.9-11.6,14.9-11.6l-5-12.7
				L176.75,96.26 M179.75,91.66l-4,1.2l-26.4,7.7l-3.7,1.1l1.4,3.6l3.7,9.4c-4.1,1.8-10.5,5.7-13.5,12.1l-2.3,4.9l5.4,0.2
				c4.6,0.2,10.5,0.2,17.5,0.2c11.9,0,23-0.2,23.1-0.2l3.9-0.1l-0.5-3.9l-4-32.1L179.75,91.66L179.75,91.66z"/>
		</g>
		<g>
			<path class="st0" d="M95.25,130.36c-7,0-12.8-0.1-17.4-0.2l-2.7-0.1l1.1-2.4c3.4-7.3,11.6-10.9,14.8-12.1v-21h24.8l4.4,35.6h-2
				C118.15,130.06,107.05,130.36,95.25,130.36L95.25,130.36z"/>
			<path class="st1" d="M114.25,96.26l4,32.1c0,0-11.1,0.2-23,0.2c-6,0-12.2-0.1-17.3-0.2c3.9-8.3,14.9-11.6,14.9-11.6v-20.5H114.25
				 M117.45,92.66h-3.1h-21.5h-3.5v3.5v18c-3.9,1.6-11.3,5.5-14.6,12.6l-2.3,4.9l5.4,0.2c4.6,0.2,10.5,0.2,17.5,0.2
				c11.9,0,23-0.2,23.1-0.2l3.9-0.1l-0.5-3.9l-4-32.1L117.45,92.66L117.45,92.66z"/>
		</g>
		<g>
			<g>
				<path class="st0" d="M128.45,115.66c-26.3,0-50.2-8.4-59.3-20.9l-1.8-2.4l3-0.4c9.1-1.1,19.8-4.4,23.3-9.3
					c4-5.6,3.1-19.9,2.6-26l-0.1-1.4l1.4-0.4c9.4-2.7,20.1-4.1,30.9-4.1c35.6,0,63.4,14.3,63.4,32.5
					C191.85,101.46,164.05,115.66,128.45,115.66L128.45,115.66z"/>
				<path class="st1" d="M128.45,52.56c34,0,61.6,13.7,61.6,30.7c0,16.9-27.6,30.7-61.6,30.7c-26.6,0-49.3-8.4-57.9-20.1
					c7.6-0.9,20.1-3.9,24.5-10s3.5-20.2,3-27.2C107.05,53.96,117.45,52.56,128.45,52.56 M128.45,48.96c-11,0-21.8,1.4-31.4,4.1
					l-2.8,0.8l0.2,2.9c0.4,5.4,1.4,19.8-2.3,24.9c-3.2,4.4-13.7,7.5-22.1,8.6l-6,0.7l3.6,4.9c9.6,13.1,33.5,21.6,60.8,21.6
					c36.6,0,65.2-15,65.2-34.2C193.65,64.06,165.05,48.96,128.45,48.96L128.45,48.96z"/>
			</g>
			<g class="st2">
				<g>
					<path class="st3" d="M108.05,62.46c2.1-1.7,4.4-2.2,6.9-1c1.8,0.8,2.7,2.6,4.4,3.5c0.6,0.3,1.3-0.2,1.1-0.8
						c-0.7-2.4-3.7-4.1-6-4.9c-2.8-0.9-5.4,0.3-7.4,2.2C106.25,62.16,107.35,63.06,108.05,62.46L108.05,62.46z"/>
				</g>
			</g>
			<g class="st2">
				<g>
					<path class="st3" d="M128.15,57.56c0.7-1.2,1.6-1.5,2.8-0.7c1,0.7,1.5,1.8,2.3,2.7c0.4,0.4,1.3,0.1,1.3-0.5
						c-0.2-1.8-2-3.5-3.6-4.1c-1.9-0.7-3.3,0.3-4,2.1C126.65,57.76,127.85,58.26,128.15,57.56L128.15,57.56z"/>
				</g>
			</g>
			<g class="st2">
				<g>
					<path class="st3" d="M142.45,62.66c1.2-0.9,2.6-1.8,4.2-1.9c1.9-0.2,3.1,1.2,4.1,2.5c0.8,0.9,2.1-0.3,1.6-1.2
						c-2.5-4.6-7.7-3.8-10.9-0.7C140.85,62.06,141.75,63.26,142.45,62.66L142.45,62.66z"/>
				</g>
			</g>
			<path class="st4" d="M184.85,70.86c-3.4,16-29.7,25.6-57.3,28c-29.3,2.5-43.4-8.3-43.4-8.3l0,0c-5.3,1.6-10.8,2.3-13.6,3.3
				c8.6,11.8,31.3,20.1,57.9,20.1c21,0,39.5-5.2,50.7-13.2c1.5-1.2,3-2.4,4.3-3.6c4.3-4.2,6.7-8.9,6.7-13.9
				C190.15,78.86,188.25,74.66,184.85,70.86z"/>
		</g>
		<g>
			<g>
				<path class="st0" d="M51.25,96.96c-14.9,0-30.2-1.9-33.5-2.9c-2.3-0.7-3.2-2.1-3.6-3.2c-0.9-2.2-0.2-4.8,0.5-6.5
					c-0.8-0.4-1.7-1-2.6-2c-2.3-2.6-3.2-6.7-2.7-12.1c0.8-8.7,15.3-14.8,44.4-18.8c0.4-10.5,6-18.6,13.2-18.6c4.5,0,8.6,3.3,11,8.8
					c2.4-3,5.4-4.7,8.6-4.7c7.1,0,13,8.6,13.4,19.5c0.5,7,1.5,21.7-3.3,28.3c-5.7,7.9-22.4,10.3-25.7,10.7c-0.3,0-0.7,0.1-1.2,0.2
					C64.45,96.56,58.25,96.96,51.25,96.96L51.25,96.96z"/>
				<path class="st1" d="M66.85,34.66c4.8,0,8.9,4.6,10.6,11.1c2.1-4.3,5.4-7,9.1-7c6.2,0,11.3,7.9,11.6,17.8c0.5,7,1.4,21.1-3,27.2
					s-16.9,9.1-24.5,10c-0.3,0-0.8,0.1-1.3,0.2c-5.5,0.8-11.8,1.2-18.1,1.2c-15.1,0-30-1.9-33-2.8c-5.5-1.7-1.1-9.1-1.1-9.1
					s-7.2-0.3-6.1-12.8c1-11.2,31.9-15.8,44.4-17.4c0-0.2,0-0.3,0-0.5C55.45,42.66,60.55,34.66,66.85,34.66 M66.85,31.16
					c-7.8,0-14,8.1-14.9,18.8c-29.5,4.1-43.6,10.5-44.5,20.1c-0.5,5.9,0.5,10.4,3.2,13.4c0.6,0.7,1.2,1.2,1.8,1.6
					c-0.6,1.9-0.9,4.3,0,6.4c0.6,1.4,1.9,3.3,4.8,4.2c3.3,1,18.4,2.9,34.1,2.9c7.1,0,13.4-0.4,18.6-1.2l0,0l0,0
					c0.5-0.1,0.8-0.1,1.1-0.2c4.8-0.6,21-3.2,26.9-11.5c4.5-6.3,4.4-17.9,3.6-29.5c-0.4-12.1-6.9-21.2-15.1-21.2
					c-3,0-5.8,1.2-8.2,3.4C75.55,33.96,71.35,31.16,66.85,31.16L66.85,31.16z"/>
			</g>
			
				<radialGradient id="SVGID_1_" cx="63.1834" cy="193.0203" r="6.2228" gradientTransform="matrix(1 0 0 -1.5117 0 345.2358)" gradientUnits="userSpaceOnUse">
				<stop  offset="0.9816" style="stop-color:#010101"/>
				<stop  offset="1" style="stop-color:#FFFFFF"/>
			</radialGradient>
			<ellipse class="st5" cx="65.25" cy="50.76" rx="7.3" ry="11"/>
			
				<radialGradient id="SVGID_00000060729348141488392010000007864200457675693958_" cx="82.0975" cy="188.8168" r="6.2226" gradientTransform="matrix(1 0 0 -1.5117 0 343.0846)" gradientUnits="userSpaceOnUse">
				<stop  offset="0.9816" style="stop-color:#010101"/>
				<stop  offset="1" style="stop-color:#FFFFFF"/>
			</radialGradient>
			
				<ellipse style="fill:url(#SVGID_00000060729348141488392010000007864200457675693958_);stroke:#010101;stroke-width:1.1821;stroke-miterlimit:5;" cx="84.25" cy="54.96" rx="7.3" ry="11"/>
			<path class="st3" d="M85.95,73.86c-0.9-2.1-3.9-1.3-3.4,0.9c1.5,6.9-10.4,3.9-13.7,2.2c-0.7-0.3-1.6-0.3-2.1,0.3
				c-1.3,1.5-2.6,3.7-3.9,5.2c-1.7-2-6.4-6.6-6.8-6.1c-1.3,1.4-3.1,3.2-4.3,4.7c-1-1.6-2-3.2-3.2-4.6c-0.6-0.7-0.9-0.7-1.6,0
				c-1.9,1.9-4.4,4.1-6,6.2c-1.2-2-5-6.8-5.6-6.4c-2.5,1.7-4.8,4.2-6.9,6.3c-0.7-1.2-3.4-4.8-4.2-4.3c-2.7,1.5-5.4,2.9-8.3,4.1
				c-2.1,0.9-0.3,3.9,1.8,3.1c2.2-1,4.4-2,6.6-3.2c0.6,1.4,2.4,3.1,3.3,4.4c0.7,1,0.9,0.8,1.8,0c2.2-1.9,3.8-4.3,6.1-6.2
				c1.4,2,3.4,4.2,4.8,6.2c0.6,0.9,1.1,1.2,1.9,0.2c1.8-2.1,3.3-4.4,5.1-6.5c1,1.5,3.6,4.7,5,4.9c1.1-0.9,4.5-5.3,5.2-5.5
				c0.7,0.6,5.8,6.3,6.5,5.6c1.5-1.6,3-3.2,4.5-4.8C75.25,83.36,90.25,84.36,85.95,73.86z"/>
			<g class="st2">
				<g>
					<path class="st3" d="M16.35,66.96c0.2-0.3,0.4-0.6,0.6-0.7s0.4-0.1,0.6-0.1s0.3,0.2,0.3,0.3c0.2,0.5,0,1.1,0.2,1.7
						c0.3,0.9,1.3,0.9,1.8,0.2c1.1-1.5-0.2-3.7-1.8-4.1c-1.5-0.4-3.1,0.6-3.4,2.1C14.65,67.26,15.85,67.86,16.35,66.96L16.35,66.96z
						"/>
				</g>
			</g>
			<g class="st2">
				<g>
					<path class="st3" d="M22.35,71.96c0.3-0.7,1.1-1.9,2-1.5c1,0.5,1,1.9,2.1,2.3c0.4,0.2,0.9,0.1,1.1-0.3c0.8-1.7-1.2-3.7-2.8-4.1
						c-1.9-0.5-3.4,1.1-4.1,2.6C20.15,72.06,21.75,73.06,22.35,71.96L22.35,71.96z"/>
				</g>
			</g>
			<path class="st7" d="M97.75,76.66c-7.1,18-55.3,13.7-65.3,13.7c-9,0-15.2,0-17-2.1c-0.1,1.7,0.5,3.4,2.8,4.1
				c4.4,1.3,33.5,4.7,52.4,1.4C77.05,91.56,96.75,91.36,97.75,76.66z"/>
			<path class="st0" d="M55.45,53.06c2.7-0.3,15.9,4.8,17.2,7.3c1.2,2.5-11.8,8.4-14.6,5.6C55.25,63.16,55.45,53.06,55.45,53.06z"/>
		</g>
	</g>
	<g id="croc_mouth_open" class="st8">
		<g class="st9">
			<path class="st0" d="M181.35,101.06c-6.9,0-12.2-3-12.4-3.2l-0.9-0.5l-0.5-29.5l0.2-0.4c0.2-0.3,15-28.3,13.9-38.8
				c-0.3-2.8,0.1-4.7,1.1-5.9c0.7-0.8,1.6-1.2,2.7-1.2c4.2,0,10,6.4,11.7,9.1c9.1,14.3,18.2,47.9-1.3,64.8
				C191.85,99.16,186.85,101.06,181.35,101.06L181.35,101.06z"/>
			<path class="st1" d="M185.55,23.46c3,0,8.3,5.3,10.2,8.2c8.6,13.5,17.8,46.2-0.9,62.5c-4.5,3.9-9.4,5.1-13.5,5.1
				c-6.5,0-11.5-2.9-11.5-2.9l-0.5-28c0,0,15.3-28.7,14.1-39.8C183.05,24.86,184.05,23.46,185.55,23.46 M185.55,19.86L185.55,19.86
				c-1.6,0-3,0.6-4,1.8c-1.9,2.1-1.8,5.2-1.6,7.3c0.8,7.3-8,27-13.7,37.8l-0.4,0.8v0.9l0.5,28v2l1.7,1c0.2,0.1,5.9,3.4,13.3,3.4
				c5.9,0,11.3-2,15.9-6c9.1-7.9,13.2-20.1,11.9-35.3c-1.2-13.4-6.3-25.5-10.3-31.8C197.15,27.16,190.85,19.86,185.55,19.86
				L185.55,19.86z"/>
		</g>
		<g class="st9">
			<path class="st0" d="M157.75,130.46c-7,0-12.8-0.1-17.4-0.2l-2.7-0.1l1.1-2.4c3.2-6.9,10.7-10.5,14.2-11.9l-5-12.8l30.3-8.9
				l4.5,36.1h-2C180.65,130.26,169.55,130.46,157.75,130.46L157.75,130.46z"/>
			<path class="st1" d="M176.75,96.36l4,32.1c0,0-11.1,0.2-23,0.2c-6,0-12.2-0.1-17.3-0.2c3.9-8.3,14.9-11.6,14.9-11.6l-5-12.7
				L176.75,96.36 M179.75,91.86l-4,1.2l-26.4,7.7l-3.7,1.1l1.4,3.6l3.7,9.4c-4.1,1.8-10.5,5.7-13.5,12.1l-2.3,4.9l5.4,0.2
				c4.6,0.2,10.5,0.2,17.5,0.2c11.9,0,23-0.2,23.1-0.2l3.9-0.1l-0.5-3.9l-4-32.1L179.75,91.86L179.75,91.86z"/>
		</g>
		<g class="st9">
			<path class="st0" d="M95.25,130.46c-7,0-12.8-0.1-17.4-0.2l-2.7-0.1l1.1-2.4c3.4-7.3,11.6-10.9,14.8-12.1v-21h24.8l4.4,35.6h-2
				C118.15,130.26,107.05,130.46,95.25,130.46L95.25,130.46z"/>
			<path class="st1" d="M114.25,96.36l4,32.1c0,0-11.1,0.2-23,0.2c-6,0-12.2-0.1-17.3-0.2c3.9-8.3,14.9-11.6,14.9-11.6v-20.5H114.25
				 M117.45,92.86h-3.1h-21.5h-3.5v3.5v18c-3.9,1.6-11.3,5.5-14.6,12.6l-2.3,4.9l5.4,0.2c4.6,0.2,10.5,0.2,17.5,0.2
				c11.9,0,23-0.2,23.1-0.2l3.9-0.1l-0.5-3.9l-4-32.1L117.45,92.86L117.45,92.86z"/>
		</g>
		<g class="st9">
			<path class="st0" d="M128.45,115.86c-26.3,0-50.2-8.4-59.3-20.9l-0.2-0.3l-0.1-0.3c-4.2-19,18.2-36.2,28.7-39.3
				c9.4-2.7,20.1-4.1,30.9-4.1c35.6,0,63.4,14.3,63.4,32.5C191.85,101.66,164.05,115.86,128.45,115.86L128.45,115.86z"/>
			<path class="st1" d="M128.45,52.76c34,0,61.6,13.7,61.6,30.7c0,16.9-27.6,30.7-61.6,30.7c-26.6,0-49.3-8.4-57.9-20.1
				c-3.9-17.7,17.3-34.3,27.5-37.3C107.05,54.16,117.45,52.76,128.45,52.76 M128.45,49.16c-11,0-21.8,1.4-31.4,4.1l0,0l0,0
				c-5.3,1.6-13.8,6.6-20.6,14.2c-5.6,6.2-11.8,16-9.3,27.2l0.2,0.7l0.4,0.6c9.6,13.1,33.5,21.6,60.8,21.6c36.6,0,65.2-15,65.2-34.2
				C193.65,64.26,165.05,49.16,128.45,49.16L128.45,49.16z"/>
		</g>
		
			<radialGradient id="SVGID_00000112631794992226321880000017892243304894299293_" cx="63.1834" cy="192.8416" r="6.2228" gradientTransform="matrix(1 0 0 -1.5117 0 345.1443)" gradientUnits="userSpaceOnUse">
			<stop  offset="0.9816" style="stop-color:#010101"/>
			<stop  offset="1" style="stop-color:#FFFFFF"/>
		</radialGradient>
		
			<ellipse style="display:inline;fill:url(#SVGID_00000112631794992226321880000017892243304894299293_);stroke:#010101;stroke-width:1.1821;stroke-miterlimit:5;" cx="65.25" cy="50.96" rx="7.3" ry="11"/>
		
			<radialGradient id="SVGID_00000178196519080274362300000011527183418478586502_" cx="82.0975" cy="188.6381" r="6.2226" gradientTransform="matrix(1 0 0 -1.5117 0 342.9932)" gradientUnits="userSpaceOnUse">
			<stop  offset="0.9816" style="stop-color:#010101"/>
			<stop  offset="1" style="stop-color:#FFFFFF"/>
		</radialGradient>
		
			<ellipse style="display:inline;fill:url(#SVGID_00000178196519080274362300000011527183418478586502_);stroke:#010101;stroke-width:1.1821;stroke-miterlimit:5;" cx="84.25" cy="55.16" rx="7.3" ry="11"/>
		<path class="st12" d="M85.95,73.96c-0.9-2.1-3.9-1.3-3.4,0.9c1.5,6.9-10.4,3.9-13.7,2.2c-0.7-0.3-1.6-0.3-2.1,0.3
			c-1.3,1.5-2.6,3.7-3.9,5.2c-1.7-2-6.4-6.6-6.8-6.1c-1.3,1.4-3.1,3.2-4.3,4.7c-1-1.6-2-3.2-3.2-4.6c-0.6-0.7-0.9-0.7-1.6,0
			c-1.9,1.9-4.4,4.1-6,6.2c-1.2-2-5-6.8-5.6-6.4c-2.5,1.7-4.8,4.2-6.9,6.3c-0.7-1.2-3.4-4.8-4.2-4.3c-2.7,1.5-5.4,2.9-8.3,4.1
			c-2.1,0.9-0.3,3.9,1.8,3.1c2.2-1,4.4-2,6.6-3.2c0.6,1.4,2.4,3.1,3.3,4.4c0.7,1,0.9,0.8,1.8,0c2.2-1.9,3.8-4.3,6.1-6.2
			c1.4,2,3.4,4.2,4.8,6.2c0.6,0.9,1.1,1.2,1.9,0.2c1.8-2.1,3.3-4.4,5.1-6.5c1,1.5,3.6,4.7,5,4.9c1.1-0.9,4.5-5.3,5.2-5.5
			c0.7,0.6,5.8,6.3,6.5,5.6c1.5-1.6,3-3.2,4.5-4.8C75.25,83.56,90.25,84.56,85.95,73.96z"/>
		<g class="st13">
			<g>
				<path class="st3" d="M108.05,62.66c2.1-1.7,4.4-2.2,6.9-1c1.8,0.8,2.7,2.6,4.4,3.5c0.6,0.3,1.3-0.2,1.1-0.8
					c-0.7-2.4-3.7-4.1-6-4.9c-2.8-0.9-5.4,0.3-7.4,2.2C106.25,62.26,107.35,63.26,108.05,62.66L108.05,62.66z"/>
			</g>
		</g>
		<g class="st13">
			<g>
				<path class="st3" d="M128.15,57.76c0.7-1.2,1.6-1.5,2.8-0.7c1,0.7,1.5,1.8,2.3,2.7c0.4,0.4,1.3,0.1,1.3-0.5
					c-0.2-1.8-2-3.5-3.6-4.1c-1.9-0.7-3.3,0.3-4,2.1C126.65,57.96,127.85,58.36,128.15,57.76L128.15,57.76z"/>
			</g>
		</g>
		<g class="st13">
			<g>
				<path class="st3" d="M142.45,62.86c1.2-0.9,2.6-1.8,4.2-1.9c1.9-0.2,3.1,1.2,4.1,2.5c0.8,0.9,2.1-0.3,1.6-1.2
					c-2.5-4.6-7.7-3.8-10.9-0.7C140.85,62.26,141.75,63.46,142.45,62.86L142.45,62.86z"/>
			</g>
		</g>
		<path class="st14" d="M96.55,77.26c-7.1,18-54.1,13.3-64.1,13.3c-9,0-15.2,0-17-2.1c-0.1,1.7,0.5,3.4,2.8,4.1
			c4.4,1.3,33.5,4.7,52.4,1.4C77.05,91.76,98.05,90.86,96.55,77.26z"/>
		<path class="st15" d="M184.85,70.96c-3.4,16-29.7,25.6-57.3,28c-29.3,2.5-43.4-8.3-43.4-8.3l0,0c-5.3,1.6-10.8,2.3-13.6,3.3
			c8.6,11.8,31.3,20.1,57.9,20.1c21,0,39.5-5.2,50.7-13.2c1.5-1.2,3-2.4,4.3-3.6c4.3-4.2,6.7-8.9,6.7-13.9
			C190.15,78.96,188.25,74.76,184.85,70.96z"/>
		<g class="st9">
			<path class="st16" d="M108.65,55.26c-1.1-3.5-4.5-5.7-8.6-6.2c0.9-2,1.1-4.1,0.4-6.1c-1.6-5-7.9-7.4-14.2-5.7
				c-11.9-16.5-27.6-32.1-33.6-31.5c-10,1-13.9,9.4-13.9,9.4s23.5,45.9,23.4,49.4c-0.2,3.5-41,14.1-44,17s1.5,16.7,8.7,17.6
				c7.2,0.8,61.3-0.5,64.7-7.7c1.4-3,0.1-5.9,1.8-9c2.2-4,6.8-8.3,7.2-14.1C106.65,65.96,110.25,60.26,108.65,55.26z"/>
			
				<radialGradient id="SVGID_00000025415679928731999870000008072191261629652893_" cx="81.3373" cy="-217.6914" r="9.7112" gradientTransform="matrix(0.7343 -7.000000e-03 6.235439e-03 -0.6371 36.3653 -83.2181)" gradientUnits="userSpaceOnUse">
				<stop  offset="0.9816" style="stop-color:#010101"/>
				<stop  offset="1" style="stop-color:#FFFFFF"/>
			</radialGradient>
			<path style="fill:url(#SVGID_00000025415679928731999870000008072191261629652893_);stroke:#010101;stroke-miterlimit:5;" d="
				M105.45,54.06c1.2,3.7-1.8,8-6.6,9.6c-4.9,1.6-9.8-0.1-11-3.8s1.8-8,6.6-9.6C99.35,48.66,104.25,50.36,105.45,54.06z"/>
			
				<radialGradient id="SVGID_00000091719225202496678800000000855422667096729221_" cx="113.7571" cy="-397.7453" r="10.7125" gradientTransform="matrix(0.6677 -0.0398 0.0386 -0.5419 24.1982 -170.4259)" gradientUnits="userSpaceOnUse">
				<stop  offset="0.9816" style="stop-color:#010101"/>
				<stop  offset="1" style="stop-color:#FFFFFF"/>
			</radialGradient>
			
				<path style="fill:url(#SVGID_00000091719225202496678800000000855422667096729221_);stroke:#010101;stroke-width:0.7205;stroke-miterlimit:5;" d="
				M95.85,39.66c0.9,2.8-2,6.3-6.5,7.8s-8.9,0.4-9.8-2.5c-0.9-2.8,2-6.3,6.5-7.8C90.55,35.76,94.95,36.86,95.85,39.66z"/>
			<g>
				
					<radialGradient id="SVGID_00000102525433227718566890000005442571403465884086_" cx="82.5565" cy="60.2852" r="52.6371" gradientTransform="matrix(1 0 0 -1 0 136)" gradientUnits="userSpaceOnUse">
					<stop  offset="0" style="stop-color:#C1282D"/>
					<stop  offset="0.0379" style="stop-color:#B8262C"/>
					<stop  offset="0.3801" style="stop-color:#6B151A"/>
					<stop  offset="0.6622" style="stop-color:#2F1212"/>
					<stop  offset="0.8702" style="stop-color:#110A0B"/>
					<stop  offset="0.9816" style="stop-color:#010101"/>
				</radialGradient>
				<path style="fill:url(#SVGID_00000102525433227718566890000005442571403465884086_);" d="M33.25,90.16c-1.7-2.4-3.8-4.5-4.5-4.6
					h-0.2c-2.4,0-4.5-0.1-6.1-0.1c-1.5,0-2.8-0.2-3.9-0.5l-0.8-0.2l0.1-0.8c0.1-0.9,0.3-1.5,0.7-1.9c1.3-1.1,8.4-3.5,18.2-6.6
					c19.5-6.3,25.9-8.7,26-10.9c0.1-1.8-5.9-15.5-23.1-48.9l-0.3-0.5l0.3-0.5c0.2-0.3,0.4-0.7,0.7-1.1l0.5-0.6l0.7,0.3
					c0.4,0.2,0.7,0.3,1,0.4c2,0.8,3.2,1.3,6.1,4.6l0.2,0.2v0.3c0.3,1.6,0.6,2.8,0.8,3.4l6.2-0.6l0.1,1c0,0.2,0.4,4,0,6.8
					c2.1,0,5.6,0.1,8.4,2.2l0.6,0.4l-0.2,0.7c-0.5,1.4-1.4,5.4-1.9,7.4c8.3,0.6,8.8,1.3,9,1.7l0.4,0.6l-0.4,0.5
					c-0.5,0.7-2.3,5.9-2.6,7.5c0.7,0.2,2.2,0.2,3.2,0.3c2.9,0.1,5.2,0.2,5.5,1.8c0.4,2.2-1.9,5.9-3.2,7.8c1.4,0.6,3.8,1.5,4.9,2.2
					c1.7,1,3,3.1,3.5,5.8c0.7,3.2,0.2,6.4-1.3,8.6c-1.9,2.8-5.3,4.5-9.1,4.5c-0.6,0-1.2,0-1.7-0.1c-0.9,1.6-2.2,3.9-3.1,4.4
					c-0.3,0.2-0.7,0.3-1.1,0.3c-1.5,0-3.9-1.5-5.2-2.3c-1.2,1.5-3.5,4-5.1,4.2h-0.1h-0.2c-1.1,0-3.1-1.3-4.5-2.3
					c-2.1,1.6-4.2,3.5-4.5,3.9c-0.4,0.7-1,1.1-1.8,1.1c-1.7,0-3.7-2.4-4.7-3.8l-7.2,4.1L33.25,90.16z"/>
				<path class="st1" d="M41.35,14.16c2.7,1.1,3.6,1.1,6.7,4.7c0.5,2.8,1.1,4.3,1.1,4.3l6-0.5c0,0,0.5,4.9-0.2,7.7
					c1.8,0.1,5.9-0.2,9,2c-0.7,2-2.2,8.6-2.2,8.6s8.9,0.5,9.4,1.3c-0.5,0.6-2.9,7.5-2.8,8.5c0.3,1.4,8.5,0.2,8.8,1.9
					c0.5,2.4-3.8,8-3.8,8s4.3,1.6,6,2.6c3.3,2,4.6,9,2,13c-1.6,2.5-4.7,4-8.3,4c-0.7,0-1.5-0.1-2.3-0.2c0,0-2.2,4.2-3.1,4.7
					c-0.1,0.1-0.3,0.2-0.6,0.2c-1.7,0-5.4-2.7-5.4-2.7s-3.4,4.3-5.1,4.6h-0.1c-1.1,0-4.5-2.6-4.5-2.6s-4.9,3.8-5.4,4.7
					c-0.2,0.4-0.6,0.6-0.9,0.6c-1.7,0-4.4-4.1-4.4-4.1l-7.3,4.1c0,0-3.5-4.9-5.3-5c-2.5,0-4.6-0.1-6.3-0.1l0,0
					c-1.4,0-2.6-0.2-3.6-0.5c0.1-0.7,0.2-1.1,0.4-1.3c1.2-1,10.5-4,17.9-6.4c22.3-7.2,26.6-9.1,26.7-11.8
					c0.2-3.5-15.8-35.1-23.2-49.4C40.85,14.96,41.15,14.56,41.35,14.16 M40.65,11.76l-0.9,1.3c-0.3,0.4-0.6,0.8-0.8,1.2l-0.6,1
					l0.5,1c16.6,32.4,22.8,46.2,23,48.4c-0.2,1.8-14.1,6.3-25.3,9.9c-12,3.9-17.2,5.7-18.6,6.8l0,0l0,0c-0.6,0.5-0.9,1.4-1,2.5
					l-0.1,1.6l1.5,0.5c1.2,0.4,2.5,0.6,4.2,0.6c1.6,0,3.7,0,6.1,0.1l0,0c0.7,0.3,2.5,2.3,3.8,4.1l1,1.5l1.6-0.9l5.7-3.2
					c1.3,1.7,3.1,3.5,5,3.5c1.1,0,2-0.5,2.6-1.5c0.4-0.4,2-1.9,3.7-3.2c3,2.1,4,2.1,4.4,2.1c0.1,0,0.3,0,0.4,0
					c1.7-0.3,3.7-2.2,5.2-3.9c1.5,1,3.5,2,5,2c0.7,0,1.3-0.2,1.6-0.5c0.4-0.3,1.4-1,3.2-4.2c0.4,0,0.8,0,1.2,0c4.2,0,7.9-1.8,10-4.9
					c1.6-2.5,2.1-6,1.4-9.4c-0.6-2.9-2.1-5.2-4-6.4c-0.9-0.6-2.5-1.3-3.9-1.9c1.5-2.3,3.1-5.3,2.7-7.5c-0.5-2.4-3.4-2.5-6.5-2.6
					c-0.6,0-1.4-0.1-2-0.1c0.6-2,1.8-5.4,2.2-6.1l0.8-1l-0.8-1.2c-0.5-0.8-0.9-1.5-8.7-2.1c0.5-2.2,1.2-5.1,1.6-6.1l0.5-1.4l-1.2-1
					c-2.6-1.9-5.6-2.2-7.8-2.3c0.2-2.7-0.1-5.6-0.1-6l-0.2-2l-2,0.2l-4.4,0.4c-0.2-0.6-0.4-1.5-0.6-2.6l-0.1-0.5l-0.4-0.4
					c-2.9-3.3-4.2-4-6.5-4.8c-0.3-0.1-0.6-0.2-1-0.4L40.65,11.76L40.65,11.76z"/>
			</g>
			<path class="st0" d="M84.25,37.96c2.6,3.2,3.3,11,2.5,12.5s-10.5-1.8-9.9-6.4C77.55,39.56,80.65,33.56,84.25,37.96z"/>
			<g class="st2">
				<g>
					<path class="st3" d="M53.65,12.66c0.8-0.3,2-0.7,2.5,0.2c0.6,1.1-0.7,2.2,0,3.3c0.2,0.3,0.6,0.5,0.9,0.4c1.8-0.5,1.6-3.8,0.7-5
						c-1.2-1.7-3.3-1.4-4.9-0.7C51.95,11.36,52.65,12.96,53.65,12.66L53.65,12.66z"/>
				</g>
			</g>
		</g>
	</g>
</g>
</svg>
