<?xml version="1.0" encoding="utf-8"?>
<!-- Generator: Adobe Illustrator 17.1.0, SVG Export Plug-In . SVG Version: 6.00 Build 0)  -->
<!DOCTYPE svg PUBLIC "-//W3C//DTD SVG 1.0//EN" "http://www.w3.org/TR/2001/REC-SVG-20010904/DTD/svg10.dtd">
<svg version="1.0" xmlns="http://www.w3.org/2000/svg" xmlns:xlink="http://www.w3.org/1999/xlink" x="0px" y="0px"
	 viewBox="0 0 219 144" enable-background="new 0 0 219 144" xml:space="preserve">
<g id="Side_Mouth">
	<g id="croc_normal">
		<g>
			<path fill="#99AF74" d="M179.3,102c-3.7,0-6.4-0.7-6.5-0.8l-1-0.3l-7.7-28.5l0.1-0.4c0.1-0.3,7.7-31.1,4-41
				c-1.1-2.9-1.1-5-0.1-6.4c0.5-0.7,1.5-1.6,3.4-1.6c4.1,0,10.1,4,12.3,6.1c12.3,11.6,29.3,42,14.6,63.1
				C192.9,100.3,185,102,179.3,102L179.3,102z"/>
			<path fill="#0D290E" d="M171.6,24.8c3.2,0,8.8,3.4,11.1,5.6c11.7,11,28.5,40.5,14.4,60.8c-5.2,7.5-12.6,9-17.8,9
				c-3.5,0-6-0.7-6-0.7L166,72.5c0,0,7.8-31.6,4-42.1C168.4,26.3,169.5,24.8,171.6,24.8 M171.6,21.3L171.6,21.3
				c-2.8,0-4.2,1.5-4.8,2.3c-2,2.9-0.6,6.8-0.1,8c2.9,7.8-2,31.5-4.1,40l-0.2,0.9l0.2,0.9l7.3,27.1l0.5,1.9l1.9,0.6
				c0.3,0.1,3.1,0.9,7,0.9c6.1,0,14.6-1.8,20.7-10.5c6.9-9.9,7.9-22.7,2.9-37.1c-4.4-12.7-12.3-23.2-17.8-28.3
				C182.7,25.5,176.2,21.3,171.6,21.3L171.6,21.3z"/>
		</g>
		<g>
			<path fill="#99AF74" d="M158.6,132c-7,0-12.8-0.1-17.4-0.2l-2.7-0.1l1.1-2.4c3.2-6.9,10.7-10.5,14.2-11.9l-5-12.8l30.3-8.9
				l4.5,36.1l-2,0C181.5,131.7,170.4,132,158.6,132L158.6,132z"/>
			<path fill="#0D290E" d="M177.6,97.9l4,32.1c0,0-11.1,0.2-23,0.2c-6,0-12.2-0.1-17.3-0.2c3.9-8.3,14.9-11.6,14.9-11.6l-5-12.7
				L177.6,97.9 M180.6,93.3l-4,1.2l-26.4,7.7l-3.7,1.1l1.4,3.6l3.7,9.4c-4.1,1.8-10.5,5.7-13.5,12.1l-2.3,4.9l5.4,0.2
				c4.6,0.2,10.5,0.2,17.5,0.2c11.9,0,23-0.2,23.1-0.2l3.9-0.1l-0.5-3.9l-4-32.1L180.6,93.3L180.6,93.3z"/>
		</g>
		<g>
			<path fill="#99AF74" d="M96.1,132c-7,0-12.8-0.1-17.4-0.2l-2.7-0.1l1.1-2.4c3.4-7.3,11.6-10.9,14.8-12.1v-21h24.8l4.4,35.6l-2,0
				C119,131.7,107.9,132,96.1,132L96.1,132z"/>
			<path fill="#0D290E" d="M115.1,97.9l4,32.1c0,0-11.1,0.2-23,0.2c-6,0-12.2-0.1-17.3-0.2c3.9-8.3,14.9-11.6,14.9-11.6V97.9H115.1
				 M118.3,94.3h-3.1H93.7h-3.5v3.5v18c-3.9,1.6-11.3,5.5-14.6,12.6l-2.3,4.9l5.4,0.2c4.6,0.2,10.5,0.2,17.5,0.2
				c11.9,0,23-0.2,23.1-0.2l3.9-0.1l-0.5-3.9l-4-32.1L118.3,94.3L118.3,94.3z"/>
		</g>
		<g>
			<g>
				<path fill="#99AF74" d="M129.3,117.3c-26.3,0-50.2-8.4-59.3-20.9L68.2,94l3-0.4c9.1-1.1,19.8-4.4,23.3-9.3
					c4-5.6,3.1-19.9,2.6-26L97,56.9l1.4-0.4c9.4-2.7,20.1-4.1,30.9-4.1c35.6,0,63.4,14.3,63.4,32.5
					C192.7,103.1,164.9,117.3,129.3,117.3L129.3,117.3z"/>
				<path fill="#0D290E" d="M129.3,54.2c34,0,61.6,13.7,61.6,30.7c0,16.9-27.6,30.7-61.6,30.7c-26.6,0-49.3-8.4-57.9-20.1
					c7.6-0.9,20.1-3.9,24.5-10c4.4-6.1,3.5-20.2,3-27.2C107.9,55.6,118.3,54.2,129.3,54.2 M129.3,50.6c-11,0-21.8,1.4-31.4,4.1
					l-2.8,0.8l0.2,2.9c0.4,5.4,1.4,19.8-2.3,24.9c-3.2,4.4-13.7,7.5-22.1,8.6l-6,0.7l3.6,4.9c9.6,13.1,33.5,21.6,60.8,21.6
					c36.6,0,65.2-15,65.2-34.2C194.5,65.7,165.9,50.6,129.3,50.6L129.3,50.6z"/>
			</g>
			<g opacity="0.52">
				<g>
					<path d="M108.9,64.1c2.1-1.7,4.4-2.2,6.9-1c1.8,0.8,2.7,2.6,4.4,3.5c0.6,0.3,1.3-0.2,1.1-0.8c-0.7-2.4-3.7-4.1-6-4.9
						c-2.8-0.9-5.4,0.3-7.4,2.2C107.1,63.8,108.2,64.7,108.9,64.1L108.9,64.1z"/>
				</g>
			</g>
			<g opacity="0.52">
				<g>
					<path d="M129,59.2c0.7-1.2,1.6-1.5,2.8-0.7c1,0.7,1.5,1.8,2.3,2.7c0.4,0.4,1.3,0.1,1.3-0.5c-0.2-1.8-2-3.5-3.6-4.1
						c-1.9-0.7-3.3,0.3-4,2.1C127.5,59.4,128.7,59.9,129,59.2L129,59.2z"/>
				</g>
			</g>
			<g opacity="0.52">
				<g>
					<path d="M143.3,64.3c1.2-0.9,2.6-1.8,4.2-1.9c1.9-0.2,3.1,1.2,4.1,2.5c0.8,0.9,2.1-0.3,1.6-1.2c-2.5-4.6-7.7-3.8-10.9-0.7
						C141.7,63.7,142.6,64.9,143.3,64.3L143.3,64.3z"/>
				</g>
			</g>
			<path opacity="0.72" fill-opacity="0.23" d="M185.7,72.5c-3.4,16-29.7,25.6-57.3,28c-29.3,2.5-43.4-8.3-43.4-8.3h0
				c-5.3,1.6-10.8,2.3-13.6,3.3c8.6,11.8,31.3,20.1,57.9,20.1c21,0,39.5-5.2,50.7-13.2c1.5-1.2,3-2.4,4.3-3.6
				c4.3-4.2,6.7-8.9,6.7-13.9C191,80.5,189.1,76.3,185.7,72.5z"/>
		</g>
		<g>
			<g>
				<path fill="#99AF74" d="M52.1,98.6c-14.9,0-30.2-1.9-33.5-2.9c-2.3-0.7-3.2-2.1-3.6-3.2c-0.9-2.2-0.2-4.8,0.5-6.5
					c-0.8-0.4-1.7-1-2.6-2c-2.3-2.6-3.2-6.7-2.7-12.1c0.8-8.7,15.3-14.8,44.4-18.8c0.4-10.5,6-18.6,13.2-18.6c4.5,0,8.6,3.3,11,8.8
					c2.4-3,5.4-4.7,8.6-4.7c7.1,0,13,8.6,13.4,19.5c0.5,7,1.5,21.7-3.3,28.3c-5.7,7.9-22.4,10.3-25.7,10.7c-0.3,0-0.7,0.1-1.2,0.2
					C65.3,98.2,59.1,98.6,52.1,98.6L52.1,98.6z"/>
				<path fill="#0D290E" d="M67.7,36.3c4.8,0,8.9,4.6,10.6,11.1c2.1-4.3,5.4-7,9.1-7c6.2,0,11.3,7.9,11.6,17.8
					c0.5,7,1.4,21.1-3,27.2c-4.4,6.1-16.9,9.1-24.5,10c-0.3,0-0.8,0.1-1.3,0.2c-5.5,0.8-11.8,1.2-18.1,1.2c-15.1,0-30-1.9-33-2.8
					c-5.5-1.7-1.1-9.1-1.1-9.1s-7.2-0.3-6.1-12.8c1-11.2,31.9-15.8,44.4-17.4c0-0.2,0-0.3,0-0.5C56.3,44.3,61.4,36.3,67.7,36.3
					 M67.7,32.8c-7.8,0-14,8.1-14.9,18.8C23.3,55.7,9.2,62.1,8.3,71.7c-0.5,5.9,0.5,10.4,3.2,13.4c0.6,0.7,1.2,1.2,1.8,1.6
					c-0.6,1.9-0.9,4.3,0,6.4c0.6,1.4,1.9,3.3,4.8,4.2c3.3,1,18.4,2.9,34.1,2.9c7.1,0,13.4-0.4,18.6-1.2l0,0l0,0
					c0.5-0.1,0.8-0.1,1.1-0.2c4.8-0.6,21-3.2,26.9-11.5c4.5-6.3,4.4-17.9,3.6-29.5c-0.4-12.1-6.9-21.2-15.1-21.2
					c-3,0-5.8,1.2-8.2,3.4C76.4,35.6,72.2,32.8,67.7,32.8L67.7,32.8z"/>
			</g>
			
				<radialGradient id="SVGID_1_" cx="64.0361" cy="55.0914" r="6.2228" gradientTransform="matrix(1 0 0 1.5117 0 -28.193)" gradientUnits="userSpaceOnUse">
				<stop  offset="0.9816" style="stop-color:#000000"/>
				<stop  offset="1" style="stop-color:#FFFFFF"/>
			</radialGradient>
			
				<ellipse fill="url(#SVGID_1_)" stroke="#000000" stroke-width="1.1821" stroke-miterlimit="5" cx="66.1" cy="52.4" rx="7.3" ry="11"/>
			
				<radialGradient id="SVGID_2_" cx="82.9502" cy="59.2949" r="6.2226" gradientTransform="matrix(1 0 0 1.5117 0 -30.3442)" gradientUnits="userSpaceOnUse">
				<stop  offset="0.9816" style="stop-color:#000000"/>
				<stop  offset="1" style="stop-color:#FFFFFF"/>
			</radialGradient>
			
				<ellipse fill="url(#SVGID_2_)" stroke="#000000" stroke-width="1.1821" stroke-miterlimit="5" cx="85.1" cy="56.6" rx="7.3" ry="11"/>
			<path d="M86.8,75.5c-0.9-2.1-3.9-1.3-3.4,0.9c1.5,6.9-10.4,3.9-13.7,2.2c-0.7-0.3-1.6-0.3-2.1,0.3c-1.3,1.5-2.6,3.7-3.9,5.2
				c-1.7-2-6.4-6.6-6.8-6.1c-1.3,1.4-3.1,3.2-4.3,4.7c-1-1.6-2-3.2-3.2-4.6c-0.6-0.7-0.9-0.7-1.6,0c-1.9,1.9-4.4,4.1-6,6.2
				c-1.2-2-5-6.8-5.6-6.4c-2.5,1.7-4.8,4.2-6.9,6.3c-0.7-1.2-3.4-4.8-4.2-4.3c-2.7,1.5-5.4,2.9-8.3,4.1c-2.1,0.9-0.3,3.9,1.8,3.1
				c2.2-1,4.4-2,6.6-3.2c0.6,1.4,2.4,3.1,3.3,4.4c0.7,1,0.9,0.8,1.8,0c2.2-1.9,3.8-4.3,6.1-6.2c1.4,2,3.4,4.2,4.8,6.2
				c0.6,0.9,1.1,1.2,1.9,0.2c1.8-2.1,3.3-4.4,5.1-6.5c1,1.5,3.6,4.7,5,4.9c1.1-0.9,4.5-5.3,5.2-5.5c0.7,0.6,5.8,6.3,6.5,5.6
				c1.5-1.6,3-3.2,4.5-4.8C76.1,85,91.1,86,86.8,75.5z"/>
			<g opacity="0.52">
				<g>
					<path d="M17.2,68.6c0.2-0.3,0.4-0.6,0.6-0.7c0.2-0.1,0.4-0.1,0.6-0.1c0.2,0,0.3,0.2,0.3,0.3c0.2,0.5,0,1.1,0.2,1.7
						c0.3,0.9,1.3,0.9,1.8,0.2c1.1-1.5-0.2-3.7-1.8-4.1c-1.5-0.4-3.1,0.6-3.4,2.1C15.5,68.9,16.7,69.5,17.2,68.6L17.2,68.6z"/>
				</g>
			</g>
			<g opacity="0.52">
				<g>
					<path d="M23.2,73.6c0.3-0.7,1.1-1.9,2-1.5c1,0.5,1,1.9,2.1,2.3c0.4,0.2,0.9,0.1,1.1-0.3c0.8-1.7-1.2-3.7-2.8-4.1
						c-1.9-0.5-3.4,1.1-4.1,2.6C21,73.7,22.6,74.7,23.2,73.6L23.2,73.6z"/>
				</g>
			</g>
			<path fill-opacity="0.23" d="M98.6,78.3C91.5,96.3,43.3,92,33.3,92c-9,0-15.2,0-17-2.1c-0.1,1.7,0.5,3.4,2.8,4.1
				c4.4,1.3,33.5,4.7,52.4,1.4C77.9,93.2,97.6,93,98.6,78.3z"/>
			<path fill="#99AF74" d="M56.3,54.7c2.7-0.3,15.9,4.8,17.2,7.3c1.2,2.5-11.8,8.4-14.6,5.6C56.1,64.8,56.3,54.7,56.3,54.7z"/>
		</g>
	</g>
	<g id="croc_mouth_open">
		<g>
			<path fill="#99AF74" d="M182.2,102.7c-6.9,0-12.2-3-12.4-3.2l-0.9-0.5l-0.5-29.5l0.2-0.4c0.2-0.3,15-28.3,13.9-38.8
				c-0.3-2.8,0.1-4.7,1.1-5.9c0.7-0.8,1.6-1.2,2.7-1.2c4.2,0,10,6.4,11.7,9.1c9.1,14.3,18.2,47.9-1.3,64.8
				C192.7,100.8,187.7,102.7,182.2,102.7L182.2,102.7z"/>
			<path fill="#0D290E" d="M186.4,25.1c3,0,8.3,5.3,10.2,8.2c8.6,13.5,17.8,46.2-0.9,62.5c-4.5,3.9-9.4,5.1-13.5,5.1
				c-6.5,0-11.5-2.9-11.5-2.9l-0.5-28c0,0,15.3-28.7,14.1-39.8C183.9,26.5,184.9,25.1,186.4,25.1 M186.4,21.5L186.4,21.5
				c-1.6,0-3,0.6-4,1.8c-1.9,2.1-1.8,5.2-1.6,7.3c0.8,7.3-8,27-13.7,37.8l-0.4,0.8l0,0.9l0.5,28l0,2l1.7,1c0.2,0.1,5.9,3.4,13.3,3.4
				c5.9,0,11.3-2,15.9-6c9.1-7.9,13.2-20.1,11.9-35.3c-1.2-13.4-6.3-25.5-10.3-31.8C198,28.8,191.7,21.5,186.4,21.5L186.4,21.5z"/>
		</g>
		<g>
			<path fill="#99AF74" d="M158.6,132.1c-7,0-12.8-0.1-17.4-0.2l-2.7-0.1l1.1-2.4c3.2-6.9,10.7-10.5,14.2-11.9l-5-12.8l30.3-8.9
				l4.5,36.1l-2,0C181.5,131.9,170.4,132.1,158.6,132.1L158.6,132.1z"/>
			<path fill="#0D290E" d="M177.6,98l4,32.1c0,0-11.1,0.2-23,0.2c-6,0-12.2-0.1-17.3-0.2c3.9-8.3,14.9-11.6,14.9-11.6l-5-12.7
				L177.6,98 M180.6,93.5l-4,1.2l-26.4,7.7l-3.7,1.1l1.4,3.6l3.7,9.4c-4.1,1.8-10.5,5.7-13.5,12.1l-2.3,4.9l5.4,0.2
				c4.6,0.2,10.5,0.2,17.5,0.2c11.9,0,23-0.2,23.1-0.2l3.9-0.1l-0.5-3.9l-4-32.1L180.6,93.5L180.6,93.5z"/>
		</g>
		<g>
			<path fill="#99AF74" d="M96.1,132.1c-7,0-12.8-0.1-17.4-0.2l-2.7-0.1l1.1-2.4c3.4-7.3,11.6-10.9,14.8-12.1v-21h24.8l4.4,35.6
				l-2,0C119,131.9,107.9,132.1,96.1,132.1L96.1,132.1z"/>
			<path fill="#0D290E" d="M115.1,98l4,32.1c0,0-11.1,0.2-23,0.2c-6,0-12.2-0.1-17.3-0.2c3.9-8.3,14.9-11.6,14.9-11.6V98H115.1
				 M118.3,94.5h-3.1H93.7h-3.5V98v18c-3.9,1.6-11.3,5.5-14.6,12.6l-2.3,4.9l5.4,0.2c4.6,0.2,10.5,0.2,17.5,0.2
				c11.9,0,23-0.2,23.1-0.2l3.9-0.1l-0.5-3.9l-4-32.1L118.3,94.5L118.3,94.5z"/>
		</g>
		<g>
			<path fill="#99AF74" d="M129.3,117.5c-26.3,0-50.2-8.4-59.3-20.9l-0.2-0.3L69.7,96c-4.2-19,18.2-36.2,28.7-39.3
				c9.4-2.7,20.1-4.1,30.9-4.1c35.6,0,63.4,14.3,63.4,32.5C192.7,103.3,164.9,117.5,129.3,117.5L129.3,117.5z"/>
			<path fill="#0D290E" d="M129.3,54.4c34,0,61.6,13.7,61.6,30.7c0,16.9-27.6,30.7-61.6,30.7c-26.6,0-49.3-8.4-57.9-20.1
				C67.5,78,88.7,61.4,98.9,58.4C107.9,55.8,118.3,54.4,129.3,54.4 M129.3,50.8c-11,0-21.8,1.4-31.4,4.1l0,0l0,0
				c-5.3,1.6-13.8,6.6-20.6,14.2c-5.6,6.2-11.8,16-9.3,27.2l0.2,0.7l0.4,0.6c9.6,13.1,33.5,21.6,60.8,21.6c36.6,0,65.2-15,65.2-34.2
				C194.5,65.9,165.9,50.8,129.3,50.8L129.3,50.8z"/>
		</g>
		
			<radialGradient id="SVGID_3_" cx="64.0361" cy="55.2701" r="6.2228" gradientTransform="matrix(1 0 0 1.5117 0 -28.2845)" gradientUnits="userSpaceOnUse">
			<stop  offset="0.9816" style="stop-color:#000000"/>
			<stop  offset="1" style="stop-color:#FFFFFF"/>
		</radialGradient>
		
			<ellipse fill="url(#SVGID_3_)" stroke="#000000" stroke-width="1.1821" stroke-miterlimit="5" cx="66.1" cy="52.6" rx="7.3" ry="11"/>
		
			<radialGradient id="SVGID_4_" cx="82.9502" cy="59.4736" r="6.2226" gradientTransform="matrix(1 0 0 1.5117 0 -30.4356)" gradientUnits="userSpaceOnUse">
			<stop  offset="0.9816" style="stop-color:#000000"/>
			<stop  offset="1" style="stop-color:#FFFFFF"/>
		</radialGradient>
		
			<ellipse fill="url(#SVGID_4_)" stroke="#000000" stroke-width="1.1821" stroke-miterlimit="5" cx="85.1" cy="56.8" rx="7.3" ry="11"/>
		<path d="M86.8,75.6c-0.9-2.1-3.9-1.3-3.4,0.9c1.5,6.9-10.4,3.9-13.7,2.2c-0.7-0.3-1.6-0.3-2.1,0.3c-1.3,1.5-2.6,3.7-3.9,5.2
			c-1.7-2-6.4-6.6-6.8-6.1c-1.3,1.4-3.1,3.2-4.3,4.7c-1-1.6-2-3.2-3.2-4.6c-0.6-0.7-0.9-0.7-1.6,0c-1.9,1.9-4.4,4.1-6,6.2
			c-1.2-2-5-6.8-5.6-6.4c-2.5,1.7-4.8,4.2-6.9,6.3c-0.7-1.2-3.4-4.8-4.2-4.3c-2.7,1.5-5.4,2.9-8.3,4.1c-2.1,0.9-0.3,3.9,1.8,3.1
			c2.2-1,4.4-2,6.6-3.2c0.6,1.4,2.4,3.1,3.3,4.4c0.7,1,0.9,0.8,1.8,0c2.2-1.9,3.8-4.3,6.1-6.2c1.4,2,3.4,4.2,4.8,6.2
			c0.6,0.9,1.1,1.2,1.9,0.2c1.8-2.1,3.3-4.4,5.1-6.5c1,1.5,3.6,4.7,5,4.9c1.1-0.9,4.5-5.3,5.2-5.5c0.7,0.6,5.8,6.3,6.5,5.6
			c1.5-1.6,3-3.2,4.5-4.8C76.1,85.2,91.1,86.2,86.8,75.6z"/>
		<g opacity="0.52">
			<g>
				<path d="M108.9,64.3c2.1-1.7,4.4-2.2,6.9-1c1.8,0.8,2.7,2.6,4.4,3.5c0.6,0.3,1.3-0.2,1.1-0.8c-0.7-2.4-3.7-4.1-6-4.9
					c-2.8-0.9-5.4,0.3-7.4,2.2C107.1,63.9,108.2,64.9,108.9,64.3L108.9,64.3z"/>
			</g>
		</g>
		<g opacity="0.52">
			<g>
				<path d="M129,59.4c0.7-1.2,1.6-1.5,2.8-0.7c1,0.7,1.5,1.8,2.3,2.7c0.4,0.4,1.3,0.1,1.3-0.5c-0.2-1.8-2-3.5-3.6-4.1
					c-1.9-0.7-3.3,0.3-4,2.1C127.5,59.6,128.7,60,129,59.4L129,59.4z"/>
			</g>
		</g>
		<g opacity="0.52">
			<g>
				<path d="M143.3,64.5c1.2-0.9,2.6-1.8,4.2-1.9c1.9-0.2,3.1,1.2,4.1,2.5c0.8,0.9,2.1-0.3,1.6-1.2c-2.5-4.6-7.7-3.8-10.9-0.7
					C141.7,63.9,142.6,65.1,143.3,64.5L143.3,64.5z"/>
			</g>
		</g>
		<path fill-opacity="0.23" d="M97.4,78.9c-7.1,18-54.1,13.3-64.1,13.3c-9,0-15.2,0-17-2.1c-0.1,1.7,0.5,3.4,2.8,4.1
			c4.4,1.3,33.5,4.7,52.4,1.4C77.9,93.4,98.9,92.5,97.4,78.9z"/>
		<path opacity="0.72" fill-opacity="0.23" d="M185.7,72.6c-3.4,16-29.7,25.6-57.3,28c-29.3,2.5-43.4-8.3-43.4-8.3h0
			c-5.3,1.6-10.8,2.3-13.6,3.3c8.6,11.8,31.3,20.1,57.9,20.1c21,0,39.5-5.2,50.7-13.2c1.5-1.2,3-2.4,4.3-3.6
			c4.3-4.2,6.7-8.9,6.7-13.9C191,80.6,189.1,76.4,185.7,72.6z"/>
		<g>
			<path fill="#99AF74" stroke="#0D290E" stroke-width="3.5462" d="M109.5,56.9c-1.1-3.5-4.5-5.7-8.6-6.2c0.9-2,1.1-4.1,0.4-6.1
				c-1.6-5-7.9-7.4-14.2-5.7C75.2,22.4,59.5,6.8,53.5,7.4c-10,1-13.9,9.4-13.9,9.4S63.1,62.7,63,66.2c-0.2,3.5-41,14.1-44,17
				c-3,2.9,1.5,16.7,8.7,17.6c7.2,0.8,61.3-0.5,64.7-7.7c1.4-3,0.1-5.9,1.8-9c2.2-4,6.8-8.3,7.2-14.1
				C107.5,67.6,111.1,61.9,109.5,56.9z"/>
			
				<radialGradient id="SVGID_5_" cx="12.4405" cy="166.6837" r="9.7112" gradientTransform="matrix(0.7343 -7.000000e-03 -6.235439e-03 0.6371 87.4909 -49.5618)" gradientUnits="userSpaceOnUse">
				<stop  offset="0.9816" style="stop-color:#000000"/>
				<stop  offset="1" style="stop-color:#FFFFFF"/>
			</radialGradient>
			<path fill="url(#SVGID_5_)" stroke="#000000" stroke-miterlimit="5" d="M106.3,55.7c1.2,3.7-1.8,8-6.6,9.6
				c-4.9,1.6-9.8-0.1-11-3.8c-1.2-3.7,1.8-8,6.6-9.6C100.2,50.3,105.1,52,106.3,55.7z"/>
			
				<radialGradient id="SVGID_6_" cx="-11.4299" cy="236.97" r="10.7125" gradientTransform="matrix(0.6677 -3.980000e-02 -3.860250e-02 0.5419 102.432 -86.6426)" gradientUnits="userSpaceOnUse">
				<stop  offset="0.9816" style="stop-color:#000000"/>
				<stop  offset="1" style="stop-color:#FFFFFF"/>
			</radialGradient>
			<path fill="url(#SVGID_6_)" stroke="#000000" stroke-width="0.7205" stroke-miterlimit="5" d="M96.7,41.3c0.9,2.8-2,6.3-6.5,7.8
				c-4.5,1.5-8.9,0.4-9.8-2.5c-0.9-2.8,2-6.3,6.5-7.8C91.4,37.4,95.8,38.5,96.7,41.3z"/>
			<g>
				<radialGradient id="SVGID_7_" cx="83.4092" cy="77.3564" r="52.6371" gradientUnits="userSpaceOnUse">
					<stop  offset="0" style="stop-color:#C1272D"/>
					<stop  offset="3.787637e-02" style="stop-color:#B8252B"/>
					<stop  offset="0.3801" style="stop-color:#6A1519"/>
					<stop  offset="0.6622" style="stop-color:#310A0B"/>
					<stop  offset="0.8702" style="stop-color:#0D0303"/>
					<stop  offset="0.9816" style="stop-color:#000000"/>
				</radialGradient>
				<path fill="url(#SVGID_7_)" d="M34.1,91.8c-1.7-2.4-3.8-4.5-4.5-4.6l-0.2,0c-2.4,0-4.5-0.1-6.1-0.1c-1.5,0-2.8-0.2-3.9-0.5
					l-0.8-0.2l0.1-0.8c0.1-0.9,0.3-1.5,0.7-1.9c1.3-1.1,8.4-3.5,18.2-6.6c19.5-6.3,25.9-8.7,26-10.9c0.1-1.8-5.9-15.5-23.1-48.9
					l-0.3-0.5l0.3-0.5c0.2-0.3,0.4-0.7,0.7-1.1l0.5-0.6l0.7,0.3c0.4,0.2,0.7,0.3,1,0.4c2,0.8,3.2,1.3,6.1,4.6l0.2,0.2l0,0.3
					c0.3,1.6,0.6,2.8,0.8,3.4l6.2-0.6l0.1,1c0,0.2,0.4,4,0,6.8c2.1,0,5.6,0.1,8.4,2.2l0.6,0.4l-0.2,0.7c-0.5,1.4-1.4,5.4-1.9,7.4
					c8.3,0.6,8.8,1.3,9,1.7l0.4,0.6l-0.4,0.5c-0.5,0.7-2.3,5.9-2.6,7.5c0.7,0.2,2.2,0.2,3.2,0.3c2.9,0.1,5.2,0.2,5.5,1.8
					c0.4,2.2-1.9,5.9-3.2,7.8c1.4,0.6,3.8,1.5,4.9,2.2c1.7,1,3,3.1,3.5,5.8c0.7,3.2,0.2,6.4-1.3,8.6c-1.9,2.8-5.3,4.5-9.1,4.5
					c-0.6,0-1.2,0-1.7-0.1c-0.9,1.6-2.2,3.9-3.1,4.4c-0.3,0.2-0.7,0.3-1.1,0.3c-1.5,0-3.9-1.5-5.2-2.3c-1.2,1.5-3.5,4-5.1,4.2
					l-0.1,0l-0.2,0c-1.1,0-3.1-1.3-4.5-2.3c-2.1,1.6-4.2,3.5-4.5,3.9c-0.4,0.7-1,1.1-1.8,1.1c-1.7,0-3.7-2.4-4.7-3.8l-7.2,4.1
					L34.1,91.8z"/>
				<path fill="#0D290E" d="M42.2,15.8c2.7,1.1,3.6,1.1,6.7,4.7c0.5,2.8,1.1,4.3,1.1,4.3l6-0.5c0,0,0.5,4.9-0.2,7.7
					c1.8,0.1,5.9-0.2,9,2c-0.7,2-2.2,8.6-2.2,8.6s8.9,0.5,9.4,1.3c-0.5,0.6-2.9,7.5-2.8,8.5c0.3,1.4,8.5,0.2,8.8,1.9
					c0.5,2.4-3.8,8-3.8,8s4.3,1.6,6,2.6c3.3,2,4.6,9,2,13c-1.6,2.5-4.7,4-8.3,4c-0.7,0-1.5-0.1-2.3-0.2c0,0-2.2,4.2-3.1,4.7
					c-0.1,0.1-0.3,0.2-0.6,0.2c-1.7,0-5.4-2.7-5.4-2.7s-3.4,4.3-5.1,4.6c0,0-0.1,0-0.1,0c-1.1,0-4.5-2.6-4.5-2.6s-4.9,3.8-5.4,4.7
					c-0.2,0.4-0.6,0.6-0.9,0.6c-1.7,0-4.4-4.1-4.4-4.1l-7.3,4.1c0,0-3.5-4.9-5.3-5c-2.5,0-4.6-0.1-6.3-0.1h0c-1.4,0-2.6-0.2-3.6-0.5
					c0.1-0.7,0.2-1.1,0.4-1.3c1.2-1,10.5-4,17.9-6.4c22.3-7.2,26.6-9.1,26.7-11.8c0.2-3.5-15.8-35.1-23.2-49.4
					C41.7,16.6,42,16.2,42.2,15.8 M41.5,13.4l-0.9,1.3c-0.3,0.4-0.6,0.8-0.8,1.2l-0.6,1l0.5,1c16.6,32.4,22.8,46.2,23,48.4
					c-0.2,1.8-14.1,6.3-25.3,9.9c-12,3.9-17.2,5.7-18.6,6.8l0,0l0,0c-0.6,0.5-0.9,1.4-1,2.5l-0.1,1.6l1.5,0.5
					c1.2,0.4,2.5,0.6,4.2,0.6c1.6,0,3.7,0,6.1,0.1l0,0c0.7,0.3,2.5,2.3,3.8,4.1l1,1.5l1.6-0.9l5.7-3.2c1.3,1.7,3.1,3.5,5,3.5
					c1.1,0,2-0.5,2.6-1.5c0.4-0.4,2-1.9,3.7-3.2c3,2.1,4,2.1,4.4,2.1c0.1,0,0.3,0,0.4,0c1.7-0.3,3.7-2.2,5.2-3.9c1.5,1,3.5,2,5,2
					c0.7,0,1.3-0.2,1.6-0.5c0.4-0.3,1.4-1,3.2-4.2c0.4,0,0.8,0,1.2,0c4.2,0,7.9-1.8,10-4.9c1.6-2.5,2.1-6,1.4-9.4
					c-0.6-2.9-2.1-5.2-4-6.4c-0.9-0.6-2.5-1.3-3.9-1.9c1.5-2.3,3.1-5.3,2.7-7.5c-0.5-2.4-3.4-2.5-6.5-2.6c-0.6,0-1.4-0.1-2-0.1
					c0.6-2,1.8-5.4,2.2-6.1l0.8-1L73.8,43c-0.5-0.8-0.9-1.5-8.7-2.1c0.5-2.2,1.2-5.1,1.6-6.1l0.5-1.4L66,32.4
					c-2.6-1.9-5.6-2.2-7.8-2.3c0.2-2.7-0.1-5.6-0.1-6l-0.2-2l-2,0.2l-4.4,0.4c-0.2-0.6-0.4-1.5-0.6-2.6l-0.1-0.5l-0.4-0.4
					c-2.9-3.3-4.2-4-6.5-4.8c-0.3-0.1-0.6-0.2-1-0.4L41.5,13.4L41.5,13.4z"/>
			</g>
			<path fill="#99AF74" d="M85.1,39.6c2.6,3.2,3.3,11,2.5,12.5c-0.8,1.5-10.5-1.8-9.9-6.4C78.4,41.2,81.5,35.2,85.1,39.6z"/>
			<g opacity="0.52">
				<g>
					<path d="M54.5,14.3c0.8-0.3,2-0.7,2.5,0.2c0.6,1.1-0.7,2.2,0,3.3c0.2,0.3,0.6,0.5,0.9,0.4c1.8-0.5,1.6-3.8,0.7-5
						c-1.2-1.7-3.3-1.4-4.9-0.7C52.8,13,53.5,14.6,54.5,14.3L54.5,14.3z"/>
				</g>
			</g>
		</g>
	</g>
</g>
<g id="Front_mouth">
	<g>
		<g>
			<path fill="#99AF74" d="M427.9,141.7c-13.6,0-31.5-2.5-39.2-14.2c-2.3-3.5-2.9-7-1.7-10.2c2.7-7.3,13.7-10.8,15.2-11.3
				c1.2-0.6,8.4-3.8,19.4-3.8c5.8,0,11.7,0.9,17.4,2.7c4,1.3,8.5,3.6,13.2,6.1c7.4,3.9,15,7.9,21.4,8.1c3.8,0.1,6,1.3,6.5,3.5
				c1,4.7-7.9,10.5-10.5,11.7C461.9,137.9,444.7,141.7,427.9,141.7L427.9,141.7z"/>
			<path fill="#0D290E" d="M421.6,104c4.9,0,10.6,0.7,16.9,2.6c10.1,3.2,23.9,14,35.1,14.4c11.2,0.3,0.1,9.5-4.7,11.8
				c-7.5,3.5-24.4,7.2-41,7.2c-15.7,0-31.1-3.3-37.7-13.4c-8.4-12.9,12.7-18.9,12.7-18.9S410.2,104,421.6,104 M421.6,100.4v3.5
				V100.4L421.6,100.4c-10.9,0-18.4,3.1-20,3.9c-2.3,0.7-13.3,4.4-16.3,12.3c-1,2.6-1.5,6.8,1.8,11.8c8.1,12.4,26.6,15,40.7,15
				c17.1,0,34.6-3.9,42.5-7.5c2.2-1,12.8-7.4,11.5-13.7c-0.4-2.1-2.2-4.7-8.2-4.9c-6.1-0.2-13.5-4.1-20.7-7.9
				c-4.8-2.5-9.3-5-13.5-6.3C433.6,101.4,427.6,100.4,421.6,100.4L421.6,100.4z"/>
		</g>
		<g>
			<g>
				<path fill="#6F8F5F" d="M339.4,158c-6.3,0-12.5-0.1-18.3-0.3l-2.7-0.1l1.1-2.4c3.7-7.8,3.3-30.9,3.3-31.1l0-1.8h24.8l4.4,35.6
					l-2,0.1C350.1,157.9,345.8,158,339.4,158L339.4,158z"/>
				<path fill="#0D290E" d="M346.1,124l4,32.1c0,0-4.2,0.1-10.7,0.1c-5,0-11.4-0.1-18.2-0.3c3.9-8.3,3.5-31.9,3.5-31.9H346.1
					 M349.3,120.5h-3.1h-21.5h-3.6l0.1,3.6c0.1,6.3-0.3,24.1-3.2,30.3l-2.3,4.9l5.4,0.2c5.8,0.2,12,0.3,18.3,0.3
					c6.4,0,10.8-0.1,10.8-0.1l3.9-0.1l-0.5-3.9l-4-32.1L349.3,120.5L349.3,120.5z"/>
			</g>
			<path fill="#6F8F5F" stroke="#0D290E" stroke-width="3.5462" d="M351.4,158.3c0-0.3,0.1-0.5,0.1-0.8c0-6.3-9.3-11.3-20.7-11.3
				c-11.4,0-20.7,5.1-20.7,11.3c0,0.3,0,0.5,0.1,0.8H351.4z"/>
		</g>
		<g>
			<g>
				<path fill="#6F8F5F" d="M391.9,158c-6.4,0-10.7-0.1-10.8-0.1l-2-0.1l4.4-35.6h24.8l0,1.8c0,0.2-0.3,23.3,3.3,31.1l1.1,2.4
					l-2.7,0.1C404.4,157.9,398.2,158,391.9,158L391.9,158z"/>
				<path fill="#0D290E" d="M406.6,124c0,0-0.4,23.6,3.5,31.9c-6.8,0.2-13.2,0.3-18.2,0.3c-6.5,0-10.7-0.1-10.7-0.1l4-32.1H406.6
					 M406.6,120.5h-21.5H382l-0.4,3.1l-4,32.1l-0.5,3.9l3.9,0.1c0,0,4.4,0.1,10.8,0.1c6.4,0,12.5-0.1,18.3-0.3l5.4-0.2l-2.3-4.9
					c-2.9-6.2-3.3-24-3.2-30.3l0.1-3.6H406.6L406.6,120.5z"/>
			</g>
			<path fill="#6F8F5F" stroke="#0D290E" stroke-width="3.5462" d="M379.9,158.3c0-0.3-0.1-0.5-0.1-0.8c0-6.3,9.3-11.3,20.7-11.3
				s20.7,5.1,20.7,11.3c0,0.3,0,0.5-0.1,0.8H379.9z"/>
		</g>
		<g>
			<g>
				<path fill="#99AF74" d="M365.4,143.5c-17.9,0-49.2-2.5-56.9-19.6c-2.4-5.4-2.2-11.4,0.7-17.7c5.4-11.8,18.4-21.4,25.3-23.5
					c9.4-2.7,20.1-4.1,30.9-4.1c35.6,0,63.4,14.3,63.4,32.5C428.8,129.2,401,143.5,365.4,143.5L365.4,143.5z"/>
				<path fill="#0D290E" d="M365.4,80.3c34,0,61.6,13.7,61.6,30.7c0,16.9-27.6,30.7-61.6,30.7c-26.6,0-49.3-5.3-55.3-18.6
					c-7.4-16.4,14.7-35.7,24.9-38.8C344,81.8,354.3,80.3,365.4,80.3 M365.4,76.8c-11,0-21.8,1.4-31.4,4.1l0,0l0,0
					c-8.4,2.5-21.3,13.2-26.4,24.4c-3.1,6.8-3.3,13.4-0.7,19.2c3.3,7.3,10.7,12.7,22.1,16.2c9.7,3,21.9,4.5,36.4,4.5
					c36.6,0,65.2-15,65.2-34.2C430.6,91.8,402,76.8,365.4,76.8L365.4,76.8z"/>
			</g>
			<path opacity="0.72" fill="#6F8F5F" d="M421.8,98.6c-3.4,16-29.7,25.6-57.3,28c-29.3,2.5-48.2-12.3-54.1-18.9
				c-1.7,5.3-3.1,9.1-0.3,15.4c5.8,13.4,28.7,18.6,55.3,18.6c21,0,39.5-5.2,50.7-13.2c1.5-1.2,3-2.4,4.3-3.6
				c4.3-4.2,6.7-8.9,6.7-13.9C427.1,106.6,425.2,102.4,421.8,98.6z"/>
		</g>
		<g>
			<g>
				<path fill="#99AF74" d="M344,157.8c-4.9,0-9.7-0.1-14.2-0.3l-2.1-0.1l0.7-2c2.5-6.9,1.3-20.5,1-23.7
					c-3.1-2.1-16.3-11.9-14.8-22.9c1.1-7.8,9.3-14.2,24.6-18.9c3.4-1.1,6.5-1.6,9.2-1.6c4.9,0,8.5,1.7,10.8,5.1
					c7.3,10.8-1.6,35-2.7,37.7l-2.7,26.5l-1.4,0C352.3,157.6,349,157.8,344,157.8L344,157.8z"/>
				<path fill="#0D290E" d="M348.2,89.9c22.7,0,6.7,40.9,6.7,40.9l-2.6,25.3c0,0-3.3,0.1-8.3,0.1c-3.9,0-8.9-0.1-14.2-0.3
					c3-8.3,1-25.1,1-25.1s-38.7-24.8,8.7-39.3C342.9,90.3,345.8,89.9,348.2,89.9 M348.2,86.7c-2.8,0-6.1,0.6-9.7,1.7
					c-15.9,4.9-24.5,11.7-25.6,20.1c-1.5,11.2,10.8,21,14.9,24c0.5,5.4,1.1,16.6-1,22.3l-1.5,4l4.2,0.2c4.5,0.2,9.3,0.3,14.3,0.3
					c5,0,8.3-0.1,8.4-0.1l2.7-0.1l0.3-2.7l2.5-24.9c1.6-4.2,10-27.7,2.4-38.9C358.6,89.9,355,86.7,348.2,86.7L348.2,86.7z"/>
			</g>
			<path fill="#99AF74" stroke="#0D290E" stroke-width="3.1288" d="M353.4,158.3c0-0.3,0.1-0.5,0.1-0.8c0-6.3-7.2-11.3-16.1-11.3
				c-8.9,0-16.1,5.1-16.1,11.3c0,0.3,0,0.5,0.1,0.8H353.4z"/>
		</g>
		<g>
			<g>
				<path fill="#99AF74" d="M378.9,157.8c-5.2,0-8.8-0.1-8.8-0.1l-1.7-0.1l1.8-25.6c-1.3-3.4-10.2-28.1-3-38.7
					c2.2-3.3,5.7-4.9,10.3-4.9c1.2,0,2.6,0.1,4,0.4c17.3,3,26.9,8.5,28.5,16.2c2.5,11.6-13.7,23.9-17.4,26.5c0,3.4,0,16.8,2.6,23.7
					l0.8,2.1l-2.2,0.1C389.1,157.7,384,157.8,378.9,157.8L378.9,157.8z"/>
				<path fill="#0D290E" d="M377.5,90.1c1.1,0,2.4,0.1,3.7,0.3c55.4,9.6,9.8,40.3,9.8,40.3s-0.4,16.9,2.7,25.1
					c-5.5,0.2-10.8,0.3-14.9,0.3c-5.3,0-8.8-0.1-8.8-0.1l1.7-24.3C371.8,131.8,355.5,90.1,377.5,90.1 M377.5,86.8L377.5,86.8
					c-6.4,0-9.8,3.1-11.6,5.6c-7.5,11,0.8,34.8,2.7,39.8l-1.7,23.6l-0.2,3.3l3.3,0.1c0.1,0,3.6,0.1,8.9,0.1c5.2,0,10.3-0.1,15-0.3
					l4.4-0.2l-1.6-4.1c-2.4-6.2-2.6-18-2.5-22.3c5-3.6,20-15.6,17.4-27.7c-1.8-8.6-11.6-14.3-29.8-17.5
					C380.2,87,378.8,86.8,377.5,86.8L377.5,86.8z"/>
			</g>
			<path fill="#99AF74" stroke="#0D290E" stroke-width="3.2052" d="M369,158.3c0-0.3-0.1-0.5-0.1-0.8c0-6.3,7.6-11.3,16.9-11.3
				c9.3,0,16.9,5.1,16.9,11.3c0,0.3,0,0.5-0.1,0.8H369z"/>
		</g>
		<path fill="#99AF74" d="M326,108.2c3.6-11.1,55.8-23.9,59.8-10.4c4,13.5-0.2,27.8-20.2,28.1C345.6,126.1,320.4,125.6,326,108.2z"
			/>
		<g>
			<path fill="#99AF74" stroke="#0D290E" stroke-width="3.5462" d="M398.5,100.9c1.4-3.4,0.3-7.3-2.5-10.3c1.9-0.9,3.5-2.4,4.3-4.4
				c2-4.8-1.1-10.8-7.1-13.6c1.8-20.2,0-42.3-5-45.8c-8.3-5.7-16.7-1.9-16.7-1.9s-11.9,50.2-14.3,52.7c-2.4,2.5-40.3-16-44.5-15.8
				c-4.2,0.2-9.8,13.7-4.8,19c5,5.4,46.8,39.5,54.1,36.3c3.1-1.4,4-4.4,7.2-5.7c4.2-1.6,10.5-1.9,14.6-6
				C390,107.7,396.5,105.8,398.5,100.9z"/>
			
				<radialGradient id="SVGID_8_" cx="858.2812" cy="375.3151" r="9.7112" gradientTransform="matrix(0.562 0.4726 -0.4194 0.4797 63.2488 -494.0714)" gradientUnits="userSpaceOnUse">
				<stop  offset="0.9816" style="stop-color:#000000"/>
				<stop  offset="1" style="stop-color:#FFFFFF"/>
			</radialGradient>
			<path fill="url(#SVGID_8_)" stroke="#000000" stroke-miterlimit="5" d="M396.9,97.9c-1.5,3.6-6.5,4.9-11.3,3
				c-4.7-2-7.4-6.5-5.9-10.1c1.5-3.6,6.5-4.9,11.3-3C395.8,89.8,398.4,94.3,396.9,97.9z"/>
			
				<radialGradient id="SVGID_9_" cx="935.0906" cy="561.424" r="10.7127" gradientTransform="matrix(0.5328 0.4044 -0.382 0.3863 106.2019 -520.7899)" gradientUnits="userSpaceOnUse">
				<stop  offset="0.9816" style="stop-color:#000000"/>
				<stop  offset="1" style="stop-color:#FFFFFF"/>
			</radialGradient>
			<path fill="url(#SVGID_9_)" stroke="#000000" stroke-width="0.7205" stroke-miterlimit="5" d="M399,80.8c-1.1,2.8-5.6,3.5-10,1.7
				c-4.4-1.8-7-5.5-5.8-8.3c1.1-2.8,5.6-3.5,10-1.7C397.5,74.3,400.1,78,399,80.8z"/>
			<g>
				<radialGradient id="SVGID_10_" cx="379.3887" cy="85.7586" r="51.1655" gradientUnits="userSpaceOnUse">
					<stop  offset="0" style="stop-color:#C1272D"/>
					<stop  offset="3.787637e-02" style="stop-color:#B8252B"/>
					<stop  offset="0.3801" style="stop-color:#6A1519"/>
					<stop  offset="0.6622" style="stop-color:#310A0B"/>
					<stop  offset="0.8702" style="stop-color:#0D0303"/>
					<stop  offset="0.9816" style="stop-color:#000000"/>
				</radialGradient>
				<path fill="url(#SVGID_10_)" d="M361.8,100.5c-3.1,0-6.2-1.5-8.6-4.1c-1.3,0.5-3.7,1.4-4.9,1.4c-0.1,0-0.3,0-0.4,0
					c-1.6-0.2-2.8-3-3.5-5.7c-1,0.2-2.6,0.4-4,0.4c0,0,0,0,0,0c-1.2,0-2.1-0.2-2.7-0.5c-0.7-0.5-1.4-2.1-2.1-4.8
					c-0.9,0-2.3-0.1-3.6-0.1c-1.9,0-2.3,0.1-2.4,0.1c-0.3,0.1-0.5,0.1-0.8,0.1c-0.6,0-1.1-0.2-1.5-0.7c-1.1-1.2-1-4.1-0.9-5.7
					l-8.1-1.6l0.1-0.9c0.3-2.9,0.1-5.9-0.4-6.4l-0.2-0.2c-1.7-1.6-3.3-2.9-4.5-4c-1.2-1-2-1.9-2.6-2.9l-0.4-0.7l0.6-0.6
					c0.6-0.6,1.2-1,1.7-1c1.7,0,8.6,2.8,18.2,6.8c14.8,6.2,22.4,9.1,25.4,9.1c0.9,0,1.2-0.2,1.4-0.5c1.2-1.3,5.6-15.6,14.3-52.2
					l0.1-0.5l0.5-0.2c0.3-0.1,0.8-0.2,1.3-0.4l0.8-0.2l0.4,0.7c0.2,0.4,0.4,0.7,0.5,1c1,1.9,1.6,3,1.6,7.4l0,0.3l-0.1,0.2
					c-0.8,1.4-1.3,2.5-1.6,3.1l5.1,3.6L380,42c-0.1,0.1-2.3,3.3-4.4,5.2c1.6,1.4,4.1,3.7,4.9,7.1l0.2,0.7l-0.6,0.4
					c-1.3,0.7-4.6,3.2-6.2,4.4c6,5.9,5.8,6.7,5.7,7.2l-0.1,0.7l-0.7,0.1c-0.8,0.2-5.6,3-6.8,4c0.4,0.6,1.5,1.6,2.2,2.3
					c2.1,2,3.8,3.6,3,5c-1.1,1.9-5.2,3.2-7.5,3.8c0.7,1.4,1.9,3.6,2.3,4.9c0.6,1.9,0.2,4.3-1.1,6.7c-1.5,2.8-4,5-6.6,5.7
					C363.5,100.4,362.7,100.5,361.8,100.5L361.8,100.5z"/>
				<path fill="#0D290E" d="M374.2,25.9c1.3,2.6,2,3.1,2,7.9c-1.5,2.5-2,4-2,4l4.9,3.5c0,0-2.8,4.1-5.1,5.7c1.3,1.3,4.6,3.6,5.5,7.3
					c-1.8,1-7.3,5.2-7.3,5.2s6.4,6.2,6.3,7.1c-0.8,0.1-7.1,3.8-7.7,4.6c-0.7,1.3,6.3,5.7,5.5,7.1c-1.2,2.2-8.1,3.6-8.1,3.6
					s2.2,4.1,2.8,5.9c1.2,3.7-2.4,9.8-6.9,11.1c-0.7,0.2-1.5,0.3-2.2,0.3c-2.9,0-6-1.5-8.3-4.3c0,0-3.8,1.6-5.2,1.6
					c-0.1,0-0.2,0-0.2,0c-1.5,0-2.9-5.8-2.9-5.8s-2.6,0.5-4.7,0.5c-0.9,0-1.7-0.1-2.1-0.4c-0.8-0.5-1.8-5-1.8-5s-2.4-0.1-4.5-0.1
					c-1.2,0-2.3,0-2.7,0.2c-0.2,0.1-0.3,0.1-0.5,0.1c-2.1,0-1.3-6.2-1.3-6.2l-8.2-1.6c0,0,0.6-6-0.7-7.2c-1.8-1.6-3.4-3.1-4.7-4.2h0
					c-1.1-0.9-1.9-1.8-2.4-2.7c0.5-0.5,0.9-0.7,1.1-0.7c1.6,0,10.6,3.8,17.7,6.8c16.1,6.8,22.7,9.2,25.8,9.2c1,0,1.7-0.3,2.2-0.8
					c2.4-2.5,10.8-36.9,14.5-52.6C373.3,26.2,373.7,26.1,374.2,25.9 M375.3,23.6l-1.5,0.4c-0.5,0.1-1,0.3-1.3,0.4l-1,0.4l-0.3,1.1
					c-8.4,35.4-12.8,49.9-14.1,51.7c-0.1,0.1-0.2,0.1-0.7,0.1c-2.8,0-10.6-3.1-25-9.1c-11.6-4.9-16.8-6.9-18.5-6.9h-0.1l-0.1,0
					c-0.8,0-1.6,0.5-2.4,1.3l-1.2,1.1l0.8,1.4c0.6,1,1.6,2.1,2.8,3.1l0.3,0.3c1.2,1,2.6,2.3,4.2,3.7l0.1,0.1
					c0.3,0.7,0.4,3.3,0.2,5.6l-0.2,1.8l1.8,0.4l6.4,1.3c-0.1,1.9,0,4.3,1.2,5.6c0.6,0.7,1.4,1,2.3,1c0.3,0,0.7-0.1,1-0.2
					c0.1,0,0.6-0.1,2.1-0.1c1,0,2,0,2.8,0c1,3.9,1.9,4.4,2.3,4.7c0.7,0.5,1.7,0.7,3.2,0.7c1.1,0,2.3-0.1,3.3-0.3
					c1.5,5.1,3.4,5.5,4.1,5.5c0.1,0,0.3,0,0.5,0c1.2,0,3.2-0.7,4.6-1.2c2.5,2.5,5.6,3.9,8.9,3.9c1,0,1.9-0.1,2.8-0.4
					c2.8-0.8,5.5-3.1,7.2-6.2c1.4-2.6,1.8-5.3,1.1-7.4c-0.3-1-1.1-2.6-1.8-4c2.6-0.8,5.8-2,6.9-4c1.2-2.1-1-4.1-3.2-6.2
					c-0.4-0.4-1-0.9-1.4-1.4c1.7-1.1,4.8-2.9,5.6-3.2l1.2-0.2l0.2-1.4c0.2-0.9,0.3-1.8-5.2-7.2c1.8-1.4,4.2-3.1,5.2-3.6l1.3-0.8
					l-0.4-1.5c-0.8-3.1-2.8-5.3-4.5-6.9c1.9-1.9,3.6-4.3,3.8-4.6l1.1-1.6l-1.6-1.2l-3.6-2.6c0.3-0.6,0.7-1.4,1.2-2.3l0.3-0.5l0-0.6
					c0-4.4-0.6-5.7-1.8-7.9c-0.2-0.3-0.3-0.6-0.5-1L375.3,23.6L375.3,23.6z"/>
			</g>
			<path fill="#99AF74" d="M391.2,71.9c-0.1,4.1-4.7,10.5-6.3,11.1c-1.6,0.6-6.8-8.2-3.3-11.2C385.1,68.7,391.4,66.3,391.2,71.9z"/>
			<g opacity="0.52">
				<g>
					<path d="M384.7,32.8c0.8,0.3,1.8,0.8,1.6,1.8c-0.3,1.1-1.8,1.3-2.1,2.4c-0.1,0.5,0.2,0.9,0.6,1c1.7,0.6,3.5-1.8,3.7-3.3
						c0.2-2-1.5-3.2-3.2-3.7C384,30.6,383.6,32.4,384.7,32.8L384.7,32.8z"/>
				</g>
			</g>
		</g>
	</g>
	<g>
		<g>
			<path fill="#99AF74" d="M418,141.4c-13.5,0-23.2-3.4-28.8-10c-2.7-3.2-3.7-6.5-2.9-9.9c1.8-7.6,12.2-12.5,13.7-13.1
				c1.3-0.8,10.9-6.6,25.8-6.6c3.5,0,7.1,0.3,10.6,1c4.1,0.8,8.9,2.5,13.9,4.4c7.1,2.7,14.4,5.5,20.6,5.5c0.6,0,1.2,0,1.7-0.1
				c0.6-0.1,1.1-0.1,1.6-0.1c3.7,0,4.9,1.6,5.3,2.9c1.3,4.6-6.7,11.3-9,12.8C461.4,133.7,438.3,141.4,418,141.4z"/>
			<path fill="#0D290E" d="M425.7,103.5c3.2,0,6.6,0.3,10.3,0.9c9.8,1.8,23.8,9.9,34.7,9.9c0.6,0,1.3,0,1.9-0.1
				c0.5-0.1,1-0.1,1.5-0.1c8.7,0-0.4,9.7-4.7,12.4c-8.6,5.4-31.6,13-51.4,13c-11.3,0-21.6-2.5-27.5-9.4
				c-10-11.7,10.3-20.3,10.3-20.3S410.3,103.5,425.7,103.5 M425.7,100L425.7,100c-14.9,0-24.8,5.7-26.6,6.8c-2.2,1-12.6,6-14.6,14.3
				c-0.6,2.7-0.6,6.9,3.3,11.5c6,7.1,16.1,10.6,30.2,10.6c20.6,0,44.2-7.9,53.3-13.6c2-1.2,11.5-8.7,9.8-14.7c-0.4-1.6-2-4.2-7-4.2
				c-0.6,0-1.2,0-1.8,0.1c-0.5,0-1,0.1-1.5,0.1c-5.8,0-13-2.7-19.9-5.4c-5.1-1.9-9.9-3.7-14.2-4.5C433,100.3,429.3,100,425.7,100
				L425.7,100z"/>
		</g>
		<g>
			<g>
				<path fill="#6F8F5F" d="M339.3,158c-6.3,0-12.5-0.1-18.3-0.3l-2.7-0.1l1.1-2.4c3.7-7.8,3.3-30.9,3.3-31.1l0-1.8h24.8l4.4,35.6
					l-2,0.1C350,157.9,345.7,158,339.3,158C339.3,158,339.3,158,339.3,158z"/>
				<path fill="#0D290E" d="M346,124l4,32.1c0,0-4.2,0.1-10.7,0.1c-5,0-11.4-0.1-18.2-0.3c3.9-8.3,3.5-31.9,3.5-31.9H346
					 M349.2,120.5H346h-21.5H321l0.1,3.6c0.1,6.3-0.3,24.1-3.2,30.3l-2.3,4.9l5.4,0.2c5.8,0.2,12,0.3,18.3,0.3
					c6.4,0,10.8-0.1,10.8-0.1l3.9-0.1l-0.5-3.9l-4-32.1L349.2,120.5L349.2,120.5z"/>
			</g>
			<path fill="#6F8F5F" stroke="#0D290E" stroke-width="3.5462" d="M351.3,158.3c0-0.3,0.1-0.5,0.1-0.8c0-6.3-9.3-11.3-20.7-11.3
				s-20.7,5.1-20.7,11.3c0,0.3,0,0.5,0.1,0.8H351.3z"/>
		</g>
		<g>
			<g>
				<path fill="#6F8F5F" d="M391.8,158c-6.4,0-10.7-0.1-10.8-0.1l-2-0.1l4.4-35.6h24.8l0,1.8c0,0.2-0.3,23.3,3.3,31.1l1.1,2.4
					l-2.7,0.1C404.3,157.9,398.2,158,391.8,158z"/>
				<path fill="#0D290E" d="M406.5,124c0,0-0.4,23.6,3.5,31.9c-6.8,0.2-13.2,0.3-18.2,0.3c-6.5,0-10.7-0.1-10.7-0.1l4-32.1H406.5
					 M410.1,120.5h-3.6h-21.5h-3.1l-0.4,3.1l-4,32.1l-0.5,3.9l3.9,0.1c0,0,4.4,0.1,10.8,0.1c6.4,0,12.5-0.1,18.3-0.3l5.4-0.2
					l-2.3-4.9c-2.9-6.2-3.3-24-3.2-30.3L410.1,120.5L410.1,120.5z"/>
			</g>
			<path fill="#6F8F5F" stroke="#0D290E" stroke-width="3.5462" d="M379.8,158.3c0-0.3-0.1-0.5-0.1-0.8c0-6.3,9.3-11.3,20.7-11.3
				c11.4,0,20.7,5.1,20.7,11.3c0,0.3,0,0.5-0.1,0.8H379.8z"/>
		</g>
		<g>
			<g>
				<path fill="#99AF74" d="M365.3,143.5c-17.9,0-49.2-2.5-56.9-19.6c-2.4-5.4-2.2-11.4,0.7-17.7c5.4-11.8,18.4-21.4,25.3-23.5
					c9.4-2.7,20.1-4.1,30.9-4.1c35.6,0,63.4,14.3,63.4,32.5C428.7,129.2,400.9,143.5,365.3,143.5z"/>
				<path fill="#0D290E" d="M365.3,80.3c34,0,61.6,13.7,61.6,30.7c0,16.9-27.6,30.7-61.6,30.7c-26.6,0-49.3-5.3-55.3-18.6
					c-7.4-16.4,14.7-35.7,24.9-38.8C343.9,81.8,354.3,80.3,365.3,80.3 M365.3,76.8c-11,0-21.8,1.4-31.4,4.1l0,0l0,0
					c-8.4,2.5-21.3,13.2-26.4,24.4c-3.1,6.8-3.3,13.4-0.7,19.2c3.3,7.3,10.7,12.7,22.1,16.2c9.7,3,21.9,4.5,36.4,4.5
					c36.6,0,65.2-15,65.2-34.2C430.5,91.8,401.9,76.8,365.3,76.8L365.3,76.8z"/>
			</g>
			<path opacity="0.72" fill="#6F8F5F" d="M421.7,98.6c-3.4,16-29.7,25.6-57.3,28c-29.3,2.5-48.2-12.3-54.1-18.9
				c-1.7,5.3-3.1,9.1-0.3,15.4c5.8,13.4,28.7,18.6,55.3,18.6c21,0,39.5-5.2,50.7-13.2c1.5-1.2,3-2.4,4.3-3.6
				c4.3-4.2,6.7-8.9,6.7-13.9C427,106.6,425.1,102.4,421.7,98.6z"/>
		</g>
		<g>
			<g>
				<path fill="#99AF74" d="M343.9,157.8c-4.9,0-9.7-0.1-14.2-0.3l-2.1-0.1l0.7-2c2.6-7,1.3-20.9,1-23.9c-2.5-2.4-14.3-14.5-11.1-24
					c1.8-5.5,8.2-8.9,19-10.1c2-0.2,3.8-0.3,5.6-0.3c8.1,0,13.6,2.4,16.5,7.1c5.7,9.4-1.6,24.7-2.8,27l-2.7,26.4l-1.4,0
					C352.3,157.6,348.9,157.8,343.9,157.8C343.9,157.8,343.9,157.8,343.9,157.8z"/>
				<path fill="#0D290E" d="M342.6,98.6c29.1,0,12.2,32.1,12.2,32.1l-2.6,25.3c0,0-3.3,0.1-8.3,0.1c-3.9,0-8.9-0.1-14.2-0.3
					c3-8.3,1-25.1,1-25.1s-30-27.7,6.5-31.8C339.2,98.7,341,98.6,342.6,98.6 M342.6,95.5c-1.8,0-3.7,0.1-5.8,0.3
					c-11.4,1.3-18.2,5-20.3,11.2c-1.6,4.9,0,10.9,4.8,17.7c2.4,3.4,5,6.1,6.3,7.4c0.5,5.2,1.2,16.8-0.9,22.6l-1.5,4l4.2,0.2
					c4.5,0.2,9.3,0.3,14.3,0.3c5,0,8.3-0.1,8.4-0.1l2.7-0.1l0.3-2.7l2.5-24.8c1.6-3.2,8.5-18.4,2.6-28.3
					C357.3,98.1,351.3,95.5,342.6,95.5L342.6,95.5z"/>
			</g>
			<path fill="#99AF74" stroke="#0D290E" stroke-width="3.1288" d="M353.3,158.3c0-0.3,0.1-0.5,0.1-0.8c0-6.3-7.2-11.3-16.1-11.3
				s-16.1,5.1-16.1,11.3c0,0.3,0,0.5,0.1,0.8H353.3z"/>
		</g>
		<g>
			<g>
				<path fill="#99AF74" d="M378.8,157.8c-5.2,0-8.8-0.1-8.8-0.1l-1.7-0.1l1.8-25.6c-1.3-3.4-10.2-28.1-3-38.7
					c2.2-3.3,5.7-4.9,10.3-4.9c1.2,0,2.6,0.1,4,0.4c17.3,3,26.9,8.5,28.5,16.2c2.5,11.6-13.7,23.9-17.4,26.5c0,3.4,0,16.8,2.6,23.7
					l0.8,2.1l-2.2,0.1C389,157.7,383.9,157.8,378.8,157.8z"/>
				<path fill="#0D290E" d="M377.4,90.1c1.1,0,2.4,0.1,3.7,0.3c55.4,9.6,9.8,40.3,9.8,40.3s-0.4,16.9,2.7,25.1
					c-5.5,0.2-10.8,0.3-14.9,0.3c-5.3,0-8.8-0.1-8.8-0.1l1.7-24.3C371.7,131.8,355.4,90.1,377.4,90.1 M377.4,86.8L377.4,86.8
					c-6.4,0-9.8,3.1-11.6,5.6c-7.5,11,0.8,34.8,2.7,39.8l-1.7,23.6l-0.2,3.3l3.3,0.1c0.1,0,3.6,0.1,8.9,0.1c5.2,0,10.3-0.1,15-0.3
					l4.4-0.2l-1.6-4.1c-2.2-5.7-2.6-16.9-2.6-22.3c1.9-1.4,5.4-4.1,8.8-7.7c7-7.3,9.9-14,8.6-20c-1.8-8.6-11.6-14.3-29.8-17.5
					C380.2,87,378.7,86.8,377.4,86.8L377.4,86.8z"/>
			</g>
			<path fill="#99AF74" stroke="#0D290E" stroke-width="3.2052" d="M368.9,158.3c0-0.3-0.1-0.5-0.1-0.8c0-6.3,7.6-11.3,16.9-11.3
				c9.3,0,16.9,5.1,16.9,11.3c0,0.3,0,0.5-0.1,0.8H368.9z"/>
		</g>
		<path fill="#99AF74" d="M324.9,102.8c3.6-11.1,56.9-18.5,60.9-5c4,13.5-0.2,27.8-20.2,28.1C345.6,126.1,319.3,120.2,324.9,102.8z"
			/>
		<g>
			<g>
				<path fill="#99AF74" d="M343.9,121.9c-18.8,0-42-4.9-45.9-6.5c-2.2-0.9-3-2.4-3.3-3.5c-0.7-2.3,0.3-4.8,1.1-6.5
					c-0.8-0.5-1.7-1.2-2.4-2.2c-2-2.8-2.6-6.9-1.6-12.3c1.5-8.6,16.6-13.4,45.9-14.7c1.2-10,7.1-17.3,14-17.3c0.3,0,0.6,0,0.8,0
					c4.5,0.4,8.3,4.1,10.2,9.8c2.4-2.6,5.3-4,8.2-4c0.3,0,0.5,0,0.8,0c7.1,0.6,12.2,9.7,11.5,20.7c-0.1,7-0.5,21.7-5.8,27.9
					c-6.4,7.4-23.3,8.3-26.6,8.4c-0.3,0-0.7,0-1.2,0.1C347.7,121.8,345.8,121.9,343.9,121.9z"/>
				<path fill="#0D290E" d="M351.6,60.7c0.2,0,0.4,0,0.7,0c4.8,0.4,8.4,5.4,9.5,12c2.4-3.8,5.6-6.2,9-6.2c0.2,0,0.4,0,0.7,0
					c6.2,0.6,10.5,8.9,9.9,18.8c-0.1,7-0.5,21.2-5.4,26.8c-4.9,5.7-17.7,7.5-25.3,7.8c-0.3,0-0.8,0-1.3,0.1
					c-1.8,0.1-3.6,0.2-5.5,0.2c-18.5,0-41.5-4.9-45.3-6.4c-5.4-2.1-0.3-9.2-0.3-9.2s-7.1-0.9-4.9-13.3c2-11.1,33.2-12.8,45.8-13.3
					c0-0.2,0-0.3,0-0.5C340.1,68,345.6,60.7,351.6,60.7 M351.6,57.1L351.6,57.1c-7.4,0-13.8,7.3-15.5,17.4
					c-29.7,1.5-44.4,6.6-46.1,16.1c-1.1,5.9-0.4,10.4,2,13.6c0.5,0.7,1.1,1.3,1.6,1.8c-0.7,1.8-1.3,4.2-0.6,6.4
					c0.4,1.5,1.5,3.5,4.4,4.6c4,1.6,27.5,6.6,46.6,6.6c2,0,3.9-0.1,5.7-0.2l0,0l0,0c0.5,0,0.9-0.1,1.1-0.1c4.9-0.2,10.1-0.9,14.4-2
					c6.2-1.6,10.8-3.9,13.4-7c5.1-5.9,6-17.4,6.3-29c0.7-12.1-5-21.7-13.2-22.5c-0.3,0-0.6,0-1,0c-2.6,0-5.2,1-7.5,2.7
					c-2.3-4.9-6.2-8.1-10.7-8.5C352.2,57.1,351.9,57.1,351.6,57.1L351.6,57.1L351.6,57.1z"/>
			</g>
			
				<radialGradient id="SVGID_11_" cx="391.2962" cy="119.1891" r="6.2232" gradientTransform="matrix(0.996 8.980000e-02 -0.1358 1.5057 -25.2629 -144.5405)" gradientUnits="userSpaceOnUse">
				<stop  offset="0.9816" style="stop-color:#000000"/>
				<stop  offset="1" style="stop-color:#FFFFFF"/>
			</radialGradient>
			<path fill="url(#SVGID_11_)" stroke="#000000" stroke-width="1.1821" stroke-miterlimit="5" d="M356.5,77.2
				c-0.5,6.1-4.2,10.7-8.3,10.3c-4-0.4-6.8-5.6-6.3-11.6c0.5-6.1,4.2-10.7,8.3-10.3C354.3,66,357.1,71.2,356.5,77.2z"/>
			
				<radialGradient id="SVGID_12_" cx="409.73" cy="123.8944" r="6.2222" gradientTransform="matrix(0.996 8.980000e-02 -0.1358 1.5057 -25.0471 -146.9397)" gradientUnits="userSpaceOnUse">
				<stop  offset="0.9816" style="stop-color:#000000"/>
				<stop  offset="1" style="stop-color:#FFFFFF"/>
			</radialGradient>
			<path fill="url(#SVGID_12_)" stroke="#000000" stroke-width="1.1821" stroke-miterlimit="5" d="M375,83.1
				c-0.5,6.1-4.2,10.7-8.3,10.3c-4-0.4-6.8-5.6-6.3-11.6c0.5-6.1,4.2-10.7,8.3-10.3C372.7,71.8,375.6,77,375,83.1z"/>
			<path d="M367.7,101.4c-0.7-2.2-3.8-1.6-3.5,0.6c0.9,7-10.7,2.9-13.8,1c-0.7-0.4-1.5-0.5-2.2,0.1c-1.5,1.3-2.9,3.5-4.4,4.8
				c-1.5-2.2-5.7-7.1-6.2-6.7c-1.4,1.3-3.4,2.9-4.7,4.3c-0.9-1.7-1.7-3.3-2.8-4.9c-0.6-0.8-0.9-0.7-1.6-0.2
				c-2.1,1.7-4.7,3.7-6.5,5.6c-1-2.1-4.4-7.2-5-6.8c-2.7,1.4-5.2,3.7-7.4,5.7c-0.5-1.2-3-5-3.8-4.7c-2.8,1.3-5.7,2.4-8.6,3.4
				c-2.2,0.7-0.6,3.9,1.5,3.2c2.3-0.8,4.6-1.6,6.8-2.6c0.5,1.5,2.1,3.3,2.8,4.7c0.6,1,0.8,0.9,1.8,0.2c2.4-1.7,4.2-4,6.6-5.6
				c1.2,2.1,3,4.5,4.2,6.7c0.5,0.9,1,1.2,1.8,0.4c1.9-2,3.7-4.1,5.7-6c0.9,1.6,3.2,5,4.6,5.4c1.2-0.8,5-4.9,5.7-5
				c0.7,0.7,5.2,6.8,6,6.1c1.6-1.5,3.3-2.9,4.9-4.3C356.2,109.9,371.1,112.2,367.7,101.4z"/>
			<g opacity="0.52">
				<g>
					<path d="M299.1,88.3c0.2-0.3,0.4-0.5,0.7-0.6c0.1-0.1,0.5,0,0.5,0c0.3,0.1,0.3,0.2,0.4,0.5c0.1,0.4-0.1,1.1,0.1,1.6
						c0.2,0.7,1.2,1,1.7,0.4c1.3-1.5,0.3-3.7-1.3-4.4c-1.5-0.6-3.2,0.4-3.6,1.9C297.4,88.6,298.6,89.1,299.1,88.3L299.1,88.3z"/>
				</g>
			</g>
			<g opacity="0.52">
				<g>
					<path d="M304.6,93.7c0.4-0.6,1.2-1.7,2.1-1.3c1.1,0.5,0.9,2,1.9,2.6c0.4,0.2,0.9,0.1,1.1-0.3c0.9-1.5-1-3.8-2.4-4.3
						c-1.9-0.6-3.5,0.8-4.3,2.3C302.4,93.8,304,94.7,304.6,93.7L304.6,93.7z"/>
				</g>
			</g>
			<path fill-opacity="0.23" d="M379.3,105.2c-8.7,17.3-56.2,8.7-66.2,7.8c-8.9-0.8-15.2-1.3-16.8-3.6c-0.2,1.7,0.2,3.4,2.4,4.3
				c4.2,1.7,32.9,7.7,52.1,6.1C357.3,118.3,376.9,119.8,379.3,105.2z"/>
			<path fill="#99AF74" d="M339.2,77.9c2.7,0,15.5,6.2,16.4,8.8c1,2.6-12.5,7.3-15.1,4.3C338.1,88,339.2,77.9,339.2,77.9z"/>
		</g>
	</g>
</g>
<g id="Croc_walk">
	<g id="croc_walk_1_3_">
		<g>
			<path fill="#99AF74" d="M179.2,101.6c-3.8,0-6.4-0.8-6.5-0.8l-1-0.3L164,71.9l0.1-0.4c0.1-0.3,7.7-31.3,4.1-41.3
				c-1.1-2.9-1.1-5-0.1-6.4c0.5-0.7,1.5-1.6,3.4-1.6c4.1,0,10.2,4,12.4,6.1c12.4,11.7,29.5,42.3,14.7,63.5
				C192.9,99.9,184.9,101.6,179.2,101.6z"/>
			<path fill="#0D290E" d="M171.4,23.9c3.2,0,8.8,3.4,11.2,5.6c11.8,11,28.7,40.8,14.5,61.2c-5.2,7.5-12.7,9.1-17.9,9.1
				c-3.6,0-6-0.7-6-0.7l-7.3-27.2c0,0,7.9-31.8,4-42.3C168.3,25.3,169.3,23.9,171.4,23.9 M171.4,20.3L171.4,20.3
				c-2.8,0-4.3,1.5-4.9,2.4c-2,2.9-0.6,6.8-0.1,8.1c2.6,7-1.2,28.4-4.1,40.2l-0.2,0.9l0.2,0.9l7.3,27.2l0.5,1.9l1.9,0.6
				c0.3,0.1,3.1,0.9,7,0.9c6.1,0,14.7-1.8,20.8-10.6c6.9-10,8-22.9,3-37.3c-4.4-12.8-12.4-23.3-17.9-28.5
				C182.6,24.6,176.1,20.3,171.4,20.3L171.4,20.3z"/>
		</g>
		<g>
			<path fill="#99AF74" d="M156.2,131.9c-4.8,0-9.1-0.1-13-0.2l-2.7-0.1l1.1-2.4c3.1-6.7,9.1-10.6,11.9-12.1l-5.1-13.1l30.8-9
				l0.1,36.4l-1.7,0.1C177.6,131.5,167.6,131.9,156.2,131.9C156.2,131.9,156.2,131.9,156.2,131.9z"/>
			<path fill="#0D290E" d="M177.5,97.4l0.1,32.3c0,0-9.9,0.4-21.4,0.4c-4.2,0-8.7-0.1-12.9-0.2c3.9-8.3,12.6-12,12.6-12l-5-12.8
				L177.5,97.4 M181.1,92.6l-4.6,1.3l-26.6,7.8l-3.7,1.1l1.4,3.6l3.9,9.8c-3.3,2-8.4,5.9-11.3,12.1l-2.3,4.9l5.4,0.2
				c3.9,0.1,8.2,0.2,13,0.2c11.4,0,21.4-0.4,21.5-0.4l3.4-0.1l0-3.4l-0.1-32.3L181.1,92.6L181.1,92.6z"/>
		</g>
		<g>
			<path fill="#99AF74" d="M96,131.7c-7,0-13.1-0.1-18.1-0.3l-2.7-0.1l1.1-2.4c3.4-7.3,11.7-11,14.9-12.2V95.6h25.2l0,35.9l-1.7,0
				C114.5,131.5,106.1,131.7,96,131.7C96,131.7,96,131.7,96,131.7z"/>
			<path fill="#0D290E" d="M114.6,97.4l0,32.4c0,0-8.4,0.2-18.5,0.2c-5.9,0-12.3-0.1-18-0.3c3.9-8.3,15-11.7,15-11.7V97.4H114.6
				 M118.2,93.8h-3.6H93h-3.6v3.6v18.1c-3.9,1.6-11.4,5.6-14.7,12.7l-2.3,4.9l5.4,0.2c5,0.2,11.2,0.3,18.2,0.3
				c10.1,0,18.5-0.2,18.6-0.2l3.5-0.1l0-3.5l0-32.4L118.2,93.8L118.2,93.8z"/>
		</g>
		<g>
			<path fill="#99AF74" d="M128.9,117c-25.9,0-49.4-8-59-20.1c-5.2,0.8-11.5,1.2-18.7,1.2c-15,0-30.4-1.9-33.8-2.9
				c-2.3-0.7-3.2-2.1-3.7-3.2c-0.9-2.2-0.2-4.8,0.5-6.6c-0.8-0.4-1.8-1-2.6-2c-2.3-2.6-3.2-6.7-2.8-12.2
				c0.8-8.7,15.4-14.9,44.7-18.9c0.4-10.6,6.1-18.7,13.3-18.7c4.6,0,8.7,3.4,11.1,8.8c2.4-3.1,5.4-4.8,8.7-4.8
				c6.7,0,12.3,7.5,13.3,17.4c8.9-2.3,18.9-3.5,29-3.5c35.8,0,63.8,14.3,63.8,32.7S164.7,117,128.9,117z"/>
			<path fill="#0D290E" d="M66.9,35.5c4.8,0,8.9,4.6,10.6,11.2c2.1-4.3,5.4-7.1,9.1-7.1c6.2,0,11.3,7.9,11.7,17.9
				c9-2.6,19.5-4,30.6-4c34.3,0,62,13.8,62,30.9c0,17.1-27.8,30.9-62,30.9c-26.8,0-49.6-8.4-58.3-20.3c-5.9,1-12.7,1.4-19.5,1.4
				c-15.2,0-30.2-1.9-33.3-2.8c-5.6-1.7-1.1-9.2-1.1-9.2S9.5,84,10.7,71.4c1-11.3,32.1-15.9,44.7-17.5c0-0.2,0-0.3,0-0.5
				C55.4,43.5,60.5,35.5,66.9,35.5 M66.9,31.9c-7.8,0-14.1,8.1-15,18.9C22.2,55,8,61.4,7.1,71.1c-0.5,6,0.5,10.5,3.2,13.5
				c0.6,0.7,1.2,1.2,1.8,1.6c-0.6,1.9-0.9,4.3,0,6.4c0.6,1.5,1.9,3.4,4.8,4.3c3.4,1,18.5,3,34.3,3c6.8,0,12.8-0.4,18-1.1
				c10.5,12.2,33.6,20,59.8,20c36.8,0,65.6-15.1,65.6-34.5c0-19.3-28.8-34.5-65.6-34.5c-9.5,0-18.9,1.1-27.5,3.1
				c-1.6-9.9-7.5-17-14.8-17c-3,0-5.8,1.2-8.2,3.5C75.6,34.7,71.4,31.9,66.9,31.9L66.9,31.9z"/>
		</g>
		
			<radialGradient id="SVGID_13_" cx="63.1957" cy="54.3491" r="6.263" gradientTransform="matrix(1 0 0 1.5117 0 -27.8132)" gradientUnits="userSpaceOnUse">
			<stop  offset="0.9816" style="stop-color:#000000"/>
			<stop  offset="1" style="stop-color:#FFFFFF"/>
		</radialGradient>
		
			<ellipse fill="url(#SVGID_13_)" stroke="#000000" stroke-width="1.1898" stroke-miterlimit="5" cx="65.3" cy="51.6" rx="7.4" ry="11.1"/>
		
			<radialGradient id="SVGID_14_" cx="82.233" cy="58.5794" r="6.263" gradientTransform="matrix(1 0 0 1.5117 0 -29.978)" gradientUnits="userSpaceOnUse">
			<stop  offset="0.9816" style="stop-color:#000000"/>
			<stop  offset="1" style="stop-color:#FFFFFF"/>
		</radialGradient>
		
			<ellipse fill="url(#SVGID_14_)" stroke="#000000" stroke-width="1.1898" stroke-miterlimit="5" cx="84.3" cy="55.9" rx="7.4" ry="11.1"/>
		<path fill="#99AF74" d="M55.4,53.9c2.7-0.3,16.1,4.8,17.3,7.4c1.2,2.5-11.9,8.5-14.7,5.7C55.2,64.1,55.4,53.9,55.4,53.9z"/>
		<path d="M86.1,74.9c-0.9-2.1-3.9-1.3-3.4,0.9c1.5,7-10.4,3.9-13.8,2.2c-0.7-0.3-1.6-0.3-2.2,0.3c-1.3,1.5-2.6,3.8-3.9,5.2
			c-1.7-2-6.4-6.6-6.8-6.2c-1.3,1.4-3.2,3.2-4.3,4.7c-1-1.6-2-3.2-3.2-4.7c-0.6-0.7-0.9-0.7-1.6,0c-1.9,1.9-4.4,4.1-6.1,6.2
			c-1.2-2-5-6.8-5.7-6.4c-2.6,1.7-4.9,4.2-6.9,6.3c-0.7-1.2-3.5-4.8-4.2-4.4c-2.7,1.5-5.5,2.9-8.3,4.2c-2.1,0.9-0.3,4,1.8,3.1
			c2.3-1,4.4-2.1,6.6-3.2c0.7,1.4,2.4,3.1,3.3,4.4c0.7,1,0.9,0.8,1.8,0c2.2-1.9,3.9-4.4,6.1-6.2c1.4,2,3.5,4.3,4.8,6.3
			c0.6,0.9,1.1,1.2,1.9,0.2c1.8-2.1,3.3-4.4,5.2-6.5c1,1.5,3.6,4.7,5.1,5c1.1-0.9,4.5-5.3,5.2-5.5c0.7,0.6,5.8,6.4,6.5,5.6
			c1.5-1.6,3-3.2,4.5-4.8C75.3,84.4,90.5,85.4,86.1,74.9z"/>
		<g opacity="0.52">
			<g>
				<path d="M16.1,68c0.2-0.3,0.4-0.6,0.6-0.7c0.2-0.1,0.4-0.1,0.6-0.1c0.2,0,0.3,0.2,0.4,0.3c0.2,0.5,0,1.1,0.2,1.7
					c0.3,0.9,1.3,0.9,1.8,0.2c1.1-1.5-0.2-3.7-1.8-4.2c-1.5-0.4-3.2,0.6-3.4,2.1C14.4,68.2,15.6,68.9,16.1,68L16.1,68z"/>
			</g>
		</g>
		<g opacity="0.52">
			<g>
				<path d="M22.1,72.9c0.3-0.7,1.1-2,2-1.5c1,0.5,1.1,1.9,2.1,2.4c0.4,0.2,0.9,0.2,1.1-0.3c0.8-1.7-1.2-3.7-2.8-4.2
					c-1.9-0.5-3.4,1.1-4.1,2.7C19.9,73.1,21.5,74,22.1,72.9L22.1,72.9z"/>
			</g>
		</g>
		<g opacity="0.52">
			<g>
				<path d="M108.3,63.5c2.1-1.7,4.4-2.2,6.9-1c1.8,0.8,2.7,2.6,4.4,3.5c0.6,0.3,1.3-0.2,1.1-0.8c-0.7-2.5-3.7-4.2-6-4.9
					c-2.8-0.9-5.4,0.3-7.4,2.2C106.6,63.1,107.6,64,108.3,63.5L108.3,63.5z"/>
			</g>
		</g>
		<g opacity="0.52">
			<g>
				<path d="M128.6,58.5c0.7-1.3,1.6-1.5,2.8-0.7c1.1,0.7,1.5,1.8,2.3,2.7c0.4,0.4,1.3,0.1,1.3-0.5c-0.2-1.8-2-3.5-3.6-4.1
					c-1.9-0.7-3.3,0.3-4,2.2C127.1,58.7,128.2,59.2,128.6,58.5L128.6,58.5z"/>
			</g>
		</g>
		<g opacity="0.52">
			<g>
				<path d="M143,63.6c1.2-1,2.6-1.8,4.2-1.9c1.9-0.2,3.1,1.2,4.2,2.6c0.8,0.9,2.2-0.3,1.6-1.3c-2.5-4.6-7.7-3.9-11-0.7
					C141.4,63,142.3,64.2,143,63.6L143,63.6z"/>
			</g>
		</g>
		<path fill-opacity="0.23" d="M96.8,78.1c-7.1,18.1-54.4,13.4-64.5,13.4c-9,0-15.3,0-17.1-2.1c-0.1,1.7,0.5,3.4,2.8,4.1
			c4.4,1.3,33.7,4.7,52.7,1.4C77.2,92.7,98.3,91.8,96.8,78.1z"/>
		<path opacity="0.72" fill-opacity="0.23" d="M185.7,71.8c-3.4,16.1-29.9,25.7-57.6,28.1c-29.4,2.6-43.7-8.4-43.7-8.4h0
			c-5.3,1.6-10.9,2.4-13.7,3.3c8.7,11.8,31.5,20.3,58.3,20.3c21.1,0,39.8-5.3,51-13.3c1.5-1.2,3-2.4,4.3-3.6c4.3-4.2,6.7-9,6.7-14
			C191,79.9,189.1,75.7,185.7,71.8z"/>
	</g>
	<g id="croc_walk_2_1_">
		<g>
			<path fill="#99AF74" d="M179.8,101.5c-4.9,0-8.6-1.4-8.7-1.4l-0.9-0.4l-5.3-29.2l0.1-0.4c0.1-0.3,10.3-30.6,7.5-40.8
				c-0.8-2.9-0.7-5,0.3-6.3c0.5-0.7,1.4-1.4,3.1-1.4c3.9,0,10,4.6,12.3,7.1c11.4,12.7,25.9,44.6,9.4,64.5
				C192,100.1,184.8,101.5,179.8,101.5z"/>
			<path fill="#0D290E" d="M175.9,23.3c3.1,0,8.8,4,11,6.5c10.8,12,25.2,43,9.4,62.2c-5.1,6.2-11.5,7.6-16.5,7.6
				c-4.7,0-8.1-1.3-8.1-1.3l-5.1-27.7c0,0,10.5-31,7.5-41.9C173,24.8,174,23.3,175.9,23.3 M175.9,19.8L175.9,19.8
				c-1.9,0-3.5,0.8-4.6,2.1c-1.4,1.8-1.6,4.4-0.6,7.9c2,7.1-3.5,28.2-7.4,39.8l-0.3,0.9l0.2,0.9l5.1,27.7l0.4,2l1.9,0.7
				c0.2,0.1,4.1,1.5,9.3,1.5c7.7,0,14.4-3.1,19.2-8.9c7.7-9.4,9.8-22.1,6-37c-3.3-13.1-10.4-24.3-15.5-29.9
				C187.1,24.8,180.6,19.8,175.9,19.8L175.9,19.8z"/>
		</g>
		<g>
			<path fill="#99AF74" d="M86.3,128.9c-0.3-0.1-8.5-2.9-21.8-9.5l-2.6-1.3l2.3-1.7c5.8-4.4,11-5.3,13.3-5.6l5.7-18.4l22.9,12.1
				l-18.6,24.9L86.3,128.9z"/>
			<path fill="#0D290E" d="M84.3,95l19.1,10.1l-16.6,22.2c0,0-8.2-2.8-21.5-9.4c6.6-5,12.3-5.3,13.4-5.3c0.1,0,0.2,0,0.2,0L84.3,95
				 M82.2,89.8l-1.3,4.1l-4.7,15.3c-3,0.4-7.8,1.8-13.1,5.8l-4.6,3.5l5.2,2.6c13.4,6.6,21.6,9.5,22,9.6l2.5,0.8l1.6-2.1l16.6-22.2
				l2.5-3.3l-3.7-2L86,91.8L82.2,89.8L82.2,89.8z"/>
		</g>
		<g>
			<path fill="#99AF74" d="M162.5,126.9c-0.1,0-13.2-0.6-27.6-2.1l-2.1-0.2l0.5-2c1.8-6.9,8.4-9.7,11.8-10.7l-5-12.7l31.3-9.2
				l-7.5,37L162.5,126.9z"/>
			<path fill="#0D290E" d="M169.2,92.5l-6.6,32.6c0,0-13-0.6-27.5-2.1c2.2-8.3,12.5-9.9,12.5-9.9l-5-12.8L169.2,92.5 M173.9,87.5
				l-5.7,1.7l-26.6,7.8l-3.7,1.1l1.4,3.6l3.6,9.2c-3.9,1.5-9.5,4.8-11.2,11.4l-1.1,4l4.1,0.4c14.5,1.5,27.6,2.1,27.7,2.1l3,0.1
				l0.6-3l6.6-32.6L173.9,87.5L173.9,87.5z"/>
		</g>
		<g>
			<path fill="#99AF74" d="M152.1,132h-2.3l0.6-2.2c1.7-6.4,6.1-10,8.2-11.4l-1.4-12.3l24.6-12.4l3.4,38.2l-1.9,0
				c-14.8,0.2-20.8,0.3-24.8,0.3C157.3,132,153.2,132,152.1,132z"/>
			<path fill="#0D290E" d="M180.2,96.3l3,33.6c-14.2,0.2-20.5,0.3-24.8,0.3c-2.4,0-4.2,0-6.4,0c2-7.5,8.3-11,8.3-11l-1.4-12.2
				L180.2,96.3 M183.3,90.8l-4.7,2.4l-21.1,10.7l-2.2,1.1l0.3,2.5l1.1,10.1c-2.5,1.9-6.4,5.7-8,11.8l-1.2,4.5h4.6c1.1,0,2,0,3,0
				c1,0,2.1,0,3.4,0c4,0,10,0,24.8-0.3l3.8-0.1l-0.3-3.8l-3-33.6L183.3,90.8L183.3,90.8z"/>
		</g>
		<g>
			<path fill="#99AF74" d="M98.9,131.8c-5.5,0-10.4-0.1-14.6-0.2l-2.7-0.1l1.1-2.4c3.3-7,9.5-10.7,12.2-12l-2.2-21.5h27.6l1.5,35.9
				l-1.8,0.1C120,131.5,110.1,131.8,98.9,131.8C98.9,131.8,98.9,131.8,98.9,131.8z"/>
			<path fill="#0D290E" d="M118.6,97.4l1.4,32.3c0,0-9.8,0.3-21.1,0.3c-4.8,0-9.9-0.1-14.6-0.2c3.9-8.3,12.5-11.6,12.5-11.6
				l-2.2-20.8H118.6 M122,93.8h-3.4H94.7h-4l0.4,3.9l1.9,18.3c-3.3,1.8-8.9,5.6-12,12.2l-2.3,4.9l5.4,0.2c4.2,0.2,9.2,0.2,14.7,0.2
				c11.2,0,21.1-0.3,21.2-0.3l3.6-0.1l-0.2-3.6l-1.4-32.3L122,93.8L122,93.8z"/>
		</g>
		<g>
			<path fill="#99AF74" d="M128.9,117c-25.9,0-49.4-8-59-20.1c-5.2,0.8-11.5,1.2-18.7,1.2c-15,0-30.4-1.9-33.8-2.9
				c-2.3-0.7-3.2-2.1-3.7-3.2c-0.9-2.2-0.2-4.8,0.5-6.6c-0.8-0.4-1.8-1-2.6-2c-2.3-2.6-3.2-6.7-2.8-12.2
				c0.8-8.7,15.4-14.9,44.7-18.9c0.4-10.6,6.1-18.7,13.3-18.7c4.6,0,8.7,3.4,11.1,8.8c2.4-3.1,5.4-4.8,8.7-4.8
				c6.7,0,12.3,7.5,13.3,17.4c8.9-2.3,18.9-3.5,29-3.5c35.8,0,63.8,14.3,63.8,32.7S164.7,117,128.9,117z"/>
			<path fill="#0D290E" d="M66.9,35.5c4.8,0,8.9,4.6,10.6,11.2c2.1-4.3,5.4-7.1,9.1-7.1c6.2,0,11.3,7.9,11.7,17.9
				c9-2.6,19.5-4,30.6-4c34.3,0,62,13.8,62,30.9c0,17.1-27.8,30.9-62,30.9c-26.8,0-49.6-8.4-58.3-20.3c-5.9,1-12.7,1.4-19.5,1.4
				c-15.2,0-30.2-1.9-33.3-2.8c-5.6-1.7-1.1-9.2-1.1-9.2S9.5,84,10.7,71.4c1-11.3,32.1-15.9,44.7-17.5c0-0.2,0-0.3,0-0.5
				C55.4,43.5,60.5,35.5,66.9,35.5 M66.9,31.9c-7.8,0-14.1,8.1-15,18.9C22.2,55,8,61.4,7.1,71.1c-0.5,6,0.5,10.5,3.2,13.5
				c0.6,0.7,1.2,1.2,1.8,1.6c-0.6,1.9-0.9,4.3,0,6.4c0.6,1.5,1.9,3.4,4.8,4.3c3.4,1,18.5,3,34.3,3c6.8,0,12.8-0.4,18-1.1
				c10.5,12.2,33.6,20,59.8,20c36.8,0,65.6-15.1,65.6-34.5c0-19.3-28.8-34.5-65.6-34.5c-9.5,0-18.9,1.1-27.5,3.1
				c-1.6-9.9-7.5-17-14.8-17c-3,0-5.8,1.2-8.2,3.5C75.6,34.7,71.4,31.9,66.9,31.9L66.9,31.9z"/>
		</g>
		
			<radialGradient id="SVGID_15_" cx="63.1957" cy="54.3491" r="6.263" gradientTransform="matrix(1 0 0 1.5117 0 -27.8132)" gradientUnits="userSpaceOnUse">
			<stop  offset="0.9816" style="stop-color:#000000"/>
			<stop  offset="1" style="stop-color:#FFFFFF"/>
		</radialGradient>
		
			<ellipse fill="url(#SVGID_15_)" stroke="#000000" stroke-width="1.1898" stroke-miterlimit="5" cx="65.3" cy="51.6" rx="7.4" ry="11.1"/>
		
			<radialGradient id="SVGID_16_" cx="82.233" cy="58.5794" r="6.263" gradientTransform="matrix(1 0 0 1.5117 0 -29.978)" gradientUnits="userSpaceOnUse">
			<stop  offset="0.9816" style="stop-color:#000000"/>
			<stop  offset="1" style="stop-color:#FFFFFF"/>
		</radialGradient>
		
			<ellipse fill="url(#SVGID_16_)" stroke="#000000" stroke-width="1.1898" stroke-miterlimit="5" cx="84.3" cy="55.9" rx="7.4" ry="11.1"/>
		<path fill="#99AF74" d="M55.4,53.9c2.7-0.3,16.1,4.8,17.3,7.4c1.2,2.5-11.9,8.5-14.7,5.7C55.2,64.1,55.4,53.9,55.4,53.9z"/>
		<path d="M86.1,74.9c-0.9-2.1-3.9-1.3-3.4,0.9c1.5,7-10.4,3.9-13.8,2.2c-0.7-0.3-1.6-0.3-2.2,0.3c-1.3,1.5-2.6,3.8-3.9,5.2
			c-1.7-2-6.4-6.6-6.8-6.2c-1.3,1.4-3.2,3.2-4.3,4.7c-1-1.6-2-3.2-3.2-4.7c-0.6-0.7-0.9-0.7-1.6,0c-1.9,1.9-4.4,4.1-6.1,6.2
			c-1.2-2-5-6.8-5.7-6.4c-2.6,1.7-4.9,4.2-6.9,6.3c-0.7-1.2-3.5-4.8-4.2-4.4c-2.7,1.5-5.5,2.9-8.3,4.2c-2.1,0.9-0.3,4,1.8,3.1
			c2.3-1,4.4-2.1,6.6-3.2c0.7,1.4,2.4,3.1,3.3,4.4c0.7,1,0.9,0.8,1.8,0c2.2-1.9,3.9-4.4,6.1-6.2c1.4,2,3.5,4.3,4.8,6.3
			c0.6,0.9,1.1,1.2,1.9,0.2c1.8-2.1,3.3-4.4,5.2-6.5c1,1.5,3.6,4.7,5.1,5c1.1-0.9,4.5-5.3,5.2-5.5c0.7,0.6,5.8,6.4,6.5,5.6
			c1.5-1.6,3-3.2,4.5-4.8C75.3,84.4,90.5,85.4,86.1,74.9z"/>
		<g opacity="0.52">
			<g>
				<path d="M16.1,68c0.2-0.3,0.4-0.6,0.6-0.7c0.2-0.1,0.4-0.1,0.6-0.1c0.2,0,0.3,0.2,0.4,0.3c0.2,0.5,0,1.1,0.2,1.7
					c0.3,0.9,1.3,0.9,1.8,0.2c1.1-1.5-0.2-3.7-1.8-4.2c-1.5-0.4-3.2,0.6-3.4,2.1C14.4,68.2,15.6,68.9,16.1,68L16.1,68z"/>
			</g>
		</g>
		<g opacity="0.52">
			<g>
				<path d="M22.1,72.9c0.3-0.7,1.1-2,2-1.5c1,0.5,1.1,1.9,2.1,2.4c0.4,0.2,0.9,0.2,1.1-0.3c0.8-1.7-1.2-3.7-2.8-4.2
					c-1.9-0.5-3.4,1.1-4.1,2.7C19.9,73.1,21.5,74,22.1,72.9L22.1,72.9z"/>
			</g>
		</g>
		<g opacity="0.52">
			<g>
				<path d="M108.3,63.5c2.1-1.7,4.4-2.2,6.9-1c1.8,0.8,2.7,2.6,4.4,3.5c0.6,0.3,1.3-0.2,1.1-0.8c-0.7-2.5-3.7-4.2-6-4.9
					c-2.8-0.9-5.4,0.3-7.4,2.2C106.6,63.1,107.6,64,108.3,63.5L108.3,63.5z"/>
			</g>
		</g>
		<g opacity="0.52">
			<g>
				<path d="M128.6,58.5c0.7-1.3,1.6-1.5,2.8-0.7c1.1,0.7,1.5,1.8,2.3,2.7c0.4,0.4,1.3,0.1,1.3-0.5c-0.2-1.8-2-3.5-3.6-4.1
					c-1.9-0.7-3.3,0.3-4,2.2C127.1,58.7,128.2,59.2,128.6,58.5L128.6,58.5z"/>
			</g>
		</g>
		<g opacity="0.52">
			<g>
				<path d="M143,63.6c1.2-1,2.6-1.8,4.2-1.9c1.9-0.2,3.1,1.2,4.2,2.6c0.8,0.9,2.2-0.3,1.6-1.3c-2.5-4.6-7.7-3.9-11-0.7
					C141.4,63,142.3,64.2,143,63.6L143,63.6z"/>
			</g>
		</g>
		<path fill-opacity="0.23" d="M96.8,78.1c-7.1,18.1-54.4,13.4-64.5,13.4c-9,0-15.3,0-17.1-2.1c-0.1,1.7,0.5,3.4,2.8,4.1
			c4.4,1.3,33.7,4.7,52.7,1.4C77.2,92.7,98.3,91.8,96.8,78.1z"/>
		<path opacity="0.72" fill-opacity="0.23" d="M185.7,71.8c-3.4,16.1-29.9,25.7-57.6,28.1c-29.4,2.6-43.7-8.4-43.7-8.4h0
			c-5.3,1.6-10.9,2.4-13.7,3.3c8.7,11.8,31.5,20.3,58.3,20.3c21.1,0,39.8-5.3,51-13.3c1.5-1.2,3-2.4,4.3-3.6c4.3-4.2,6.7-9,6.7-14
			C191,79.9,189.1,75.7,185.7,71.8z"/>
	</g>
	<g id="croc_walk_1_2_">
		<g>
			<path fill="#99AF74" d="M179.2,101.6c-3.8,0-6.4-0.8-6.5-0.8l-1-0.3L164,71.9l0.1-0.4c0.1-0.3,7.7-31.3,4.1-41.3
				c-1.1-2.9-1.1-5-0.1-6.4c0.5-0.7,1.5-1.6,3.4-1.6c4.1,0,10.2,4,12.4,6.1c12.4,11.7,29.5,42.3,14.7,63.5
				C192.9,99.9,184.9,101.6,179.2,101.6z"/>
			<path fill="#0D290E" d="M171.4,23.9c3.2,0,8.8,3.4,11.2,5.6c11.8,11,28.7,40.8,14.5,61.2c-5.2,7.5-12.7,9.1-17.9,9.1
				c-3.6,0-6-0.7-6-0.7l-7.3-27.2c0,0,7.9-31.8,4-42.3C168.3,25.3,169.3,23.9,171.4,23.9 M171.4,20.3L171.4,20.3
				c-2.8,0-4.3,1.5-4.9,2.4c-2,2.9-0.6,6.8-0.1,8.1c2.6,7-1.2,28.4-4.1,40.2l-0.2,0.9l0.2,0.9l7.3,27.2l0.5,1.9l1.9,0.6
				c0.3,0.1,3.1,0.9,7,0.9c6.1,0,14.7-1.8,20.8-10.6c6.9-10,8-22.9,3-37.3c-4.4-12.8-12.4-23.3-17.9-28.5
				C182.6,24.6,176.1,20.3,171.4,20.3L171.4,20.3z"/>
		</g>
		<g>
			<path fill="#99AF74" d="M156.2,131.9c-4.8,0-9.1-0.1-13-0.2l-2.7-0.1l1.1-2.4c3.1-6.7,9.1-10.6,11.9-12.1l-5.1-13.1l30.8-9
				l0.1,36.4l-1.7,0.1C177.6,131.5,167.6,131.9,156.2,131.9C156.2,131.9,156.2,131.9,156.2,131.9z"/>
			<path fill="#0D290E" d="M177.5,97.4l0.1,32.3c0,0-9.9,0.4-21.4,0.4c-4.2,0-8.7-0.1-12.9-0.2c3.9-8.3,12.6-12,12.6-12l-5-12.8
				L177.5,97.4 M181.1,92.6l-4.6,1.3l-26.6,7.8l-3.7,1.1l1.4,3.6l3.9,9.8c-3.3,2-8.4,5.9-11.3,12.1l-2.3,4.9l5.4,0.2
				c3.9,0.1,8.2,0.2,13,0.2c11.4,0,21.4-0.4,21.5-0.4l3.4-0.1l0-3.4l-0.1-32.3L181.1,92.6L181.1,92.6z"/>
		</g>
		<g>
			<path fill="#99AF74" d="M96,131.7c-7,0-13.1-0.1-18.1-0.3l-2.7-0.1l1.1-2.4c3.4-7.3,11.7-11,14.9-12.2V95.6h25.2l0,35.9l-1.7,0
				C114.5,131.5,106.1,131.7,96,131.7C96,131.7,96,131.7,96,131.7z"/>
			<path fill="#0D290E" d="M114.6,97.4l0,32.4c0,0-8.4,0.2-18.5,0.2c-5.9,0-12.3-0.1-18-0.3c3.9-8.3,15-11.7,15-11.7V97.4H114.6
				 M118.2,93.8h-3.6H93h-3.6v3.6v18.1c-3.9,1.6-11.4,5.6-14.7,12.7l-2.3,4.9l5.4,0.2c5,0.2,11.2,0.3,18.2,0.3
				c10.1,0,18.5-0.2,18.6-0.2l3.5-0.1l0-3.5l0-32.4L118.2,93.8L118.2,93.8z"/>
		</g>
		<g>
			<path fill="#99AF74" d="M128.9,117c-25.9,0-49.4-8-59-20.1c-5.2,0.8-11.5,1.2-18.7,1.2c-15,0-30.4-1.9-33.8-2.9
				c-2.3-0.7-3.2-2.1-3.7-3.2c-0.9-2.2-0.2-4.8,0.5-6.6c-0.8-0.4-1.8-1-2.6-2c-2.3-2.6-3.2-6.7-2.8-12.2
				c0.8-8.7,15.4-14.9,44.7-18.9c0.4-10.6,6.1-18.7,13.3-18.7c4.6,0,8.7,3.4,11.1,8.8c2.4-3.1,5.4-4.8,8.7-4.8
				c6.7,0,12.3,7.5,13.3,17.4c8.9-2.3,18.9-3.5,29-3.5c35.8,0,63.8,14.3,63.8,32.7S164.7,117,128.9,117z"/>
			<path fill="#0D290E" d="M66.9,35.5c4.8,0,8.9,4.6,10.6,11.2c2.1-4.3,5.4-7.1,9.1-7.1c6.2,0,11.3,7.9,11.7,17.9
				c9-2.6,19.5-4,30.6-4c34.3,0,62,13.8,62,30.9c0,17.1-27.8,30.9-62,30.9c-26.8,0-49.6-8.4-58.3-20.3c-5.9,1-12.7,1.4-19.5,1.4
				c-15.2,0-30.2-1.9-33.3-2.8c-5.6-1.7-1.1-9.2-1.1-9.2S9.5,84,10.7,71.4c1-11.3,32.1-15.9,44.7-17.5c0-0.2,0-0.3,0-0.5
				C55.4,43.5,60.5,35.5,66.9,35.5 M66.9,31.9c-7.8,0-14.1,8.1-15,18.9C22.2,55,8,61.4,7.1,71.1c-0.5,6,0.5,10.5,3.2,13.5
				c0.6,0.7,1.2,1.2,1.8,1.6c-0.6,1.9-0.9,4.3,0,6.4c0.6,1.5,1.9,3.4,4.8,4.3c3.4,1,18.5,3,34.3,3c6.8,0,12.8-0.4,18-1.1
				c10.5,12.2,33.6,20,59.8,20c36.8,0,65.6-15.1,65.6-34.5c0-19.3-28.8-34.5-65.6-34.5c-9.5,0-18.9,1.1-27.5,3.1
				c-1.6-9.9-7.5-17-14.8-17c-3,0-5.8,1.2-8.2,3.5C75.6,34.7,71.4,31.9,66.9,31.9L66.9,31.9z"/>
		</g>
		
			<radialGradient id="SVGID_17_" cx="63.1957" cy="54.3491" r="6.263" gradientTransform="matrix(1 0 0 1.5117 0 -27.8132)" gradientUnits="userSpaceOnUse">
			<stop  offset="0.9816" style="stop-color:#000000"/>
			<stop  offset="1" style="stop-color:#FFFFFF"/>
		</radialGradient>
		
			<ellipse fill="url(#SVGID_17_)" stroke="#000000" stroke-width="1.1898" stroke-miterlimit="5" cx="65.3" cy="51.6" rx="7.4" ry="11.1"/>
		
			<radialGradient id="SVGID_18_" cx="82.233" cy="58.5794" r="6.263" gradientTransform="matrix(1 0 0 1.5117 0 -29.978)" gradientUnits="userSpaceOnUse">
			<stop  offset="0.9816" style="stop-color:#000000"/>
			<stop  offset="1" style="stop-color:#FFFFFF"/>
		</radialGradient>
		
			<ellipse fill="url(#SVGID_18_)" stroke="#000000" stroke-width="1.1898" stroke-miterlimit="5" cx="84.3" cy="55.9" rx="7.4" ry="11.1"/>
		<path fill="#99AF74" d="M55.4,53.9c2.7-0.3,16.1,4.8,17.3,7.4c1.2,2.5-11.9,8.5-14.7,5.7C55.2,64.1,55.4,53.9,55.4,53.9z"/>
		<path d="M86.1,74.9c-0.9-2.1-3.9-1.3-3.4,0.9c1.5,7-10.4,3.9-13.8,2.2c-0.7-0.3-1.6-0.3-2.2,0.3c-1.3,1.5-2.6,3.8-3.9,5.2
			c-1.7-2-6.4-6.6-6.8-6.2c-1.3,1.4-3.2,3.2-4.3,4.7c-1-1.6-2-3.2-3.2-4.7c-0.6-0.7-0.9-0.7-1.6,0c-1.9,1.9-4.4,4.1-6.1,6.2
			c-1.2-2-5-6.8-5.7-6.4c-2.6,1.7-4.9,4.2-6.9,6.3c-0.7-1.2-3.5-4.8-4.2-4.4c-2.7,1.5-5.5,2.9-8.3,4.2c-2.1,0.9-0.3,4,1.8,3.1
			c2.3-1,4.4-2.1,6.6-3.2c0.7,1.4,2.4,3.1,3.3,4.4c0.7,1,0.9,0.8,1.8,0c2.2-1.9,3.9-4.4,6.1-6.2c1.4,2,3.5,4.3,4.8,6.3
			c0.6,0.9,1.1,1.2,1.9,0.2c1.8-2.1,3.3-4.4,5.2-6.5c1,1.5,3.6,4.7,5.1,5c1.1-0.9,4.5-5.3,5.2-5.5c0.7,0.6,5.8,6.4,6.5,5.6
			c1.5-1.6,3-3.2,4.5-4.8C75.3,84.4,90.5,85.4,86.1,74.9z"/>
		<g opacity="0.52">
			<g>
				<path d="M16.1,68c0.2-0.3,0.4-0.6,0.6-0.7c0.2-0.1,0.4-0.1,0.6-0.1c0.2,0,0.3,0.2,0.4,0.3c0.2,0.5,0,1.1,0.2,1.7
					c0.3,0.9,1.3,0.9,1.8,0.2c1.1-1.5-0.2-3.7-1.8-4.2c-1.5-0.4-3.2,0.6-3.4,2.1C14.4,68.2,15.6,68.9,16.1,68L16.1,68z"/>
			</g>
		</g>
		<g opacity="0.52">
			<g>
				<path d="M22.1,72.9c0.3-0.7,1.1-2,2-1.5c1,0.5,1.1,1.9,2.1,2.4c0.4,0.2,0.9,0.2,1.1-0.3c0.8-1.7-1.2-3.7-2.8-4.2
					c-1.9-0.5-3.4,1.1-4.1,2.7C19.9,73.1,21.5,74,22.1,72.9L22.1,72.9z"/>
			</g>
		</g>
		<g opacity="0.52">
			<g>
				<path d="M108.3,63.5c2.1-1.7,4.4-2.2,6.9-1c1.8,0.8,2.7,2.6,4.4,3.5c0.6,0.3,1.3-0.2,1.1-0.8c-0.7-2.5-3.7-4.2-6-4.9
					c-2.8-0.9-5.4,0.3-7.4,2.2C106.6,63.1,107.6,64,108.3,63.5L108.3,63.5z"/>
			</g>
		</g>
		<g opacity="0.52">
			<g>
				<path d="M128.6,58.5c0.7-1.3,1.6-1.5,2.8-0.7c1.1,0.7,1.5,1.8,2.3,2.7c0.4,0.4,1.3,0.1,1.3-0.5c-0.2-1.8-2-3.5-3.6-4.1
					c-1.9-0.7-3.3,0.3-4,2.2C127.1,58.7,128.2,59.2,128.6,58.5L128.6,58.5z"/>
			</g>
		</g>
		<g opacity="0.52">
			<g>
				<path d="M143,63.6c1.2-1,2.6-1.8,4.2-1.9c1.9-0.2,3.1,1.2,4.2,2.6c0.8,0.9,2.2-0.3,1.6-1.3c-2.5-4.6-7.7-3.9-11-0.7
					C141.4,63,142.3,64.2,143,63.6L143,63.6z"/>
			</g>
		</g>
		<path fill-opacity="0.23" d="M96.8,78.1c-7.1,18.1-54.4,13.4-64.5,13.4c-9,0-15.3,0-17.1-2.1c-0.1,1.7,0.5,3.4,2.8,4.1
			c4.4,1.3,33.7,4.7,52.7,1.4C77.2,92.7,98.3,91.8,96.8,78.1z"/>
		<path opacity="0.72" fill-opacity="0.23" d="M185.7,71.8c-3.4,16.1-29.9,25.7-57.6,28.1c-29.4,2.6-43.7-8.4-43.7-8.4h0
			c-5.3,1.6-10.9,2.4-13.7,3.3c8.7,11.8,31.5,20.3,58.3,20.3c21.1,0,39.8-5.3,51-13.3c1.5-1.2,3-2.4,4.3-3.6c4.3-4.2,6.7-9,6.7-14
			C191,79.9,189.1,75.7,185.7,71.8z"/>
	</g>
	<g id="croc_walk_4_1_">
		<g>
			<path fill="#99AF74" d="M179.4,101.9c-5.5,0-9.6-1.7-9.8-1.8l-0.9-0.4l-4.1-29.4l0.2-0.4c0.1-0.3,11.5-30.1,9.1-40.5
				c-0.7-2.9-0.5-4.9,0.5-6.2c0.5-0.6,1.4-1.4,3-1.4c3.9,0,10,4.9,12.3,7.6c10.9,13.1,24,45.6,6.7,64.9
				C192.1,99.3,186.2,101.9,179.4,101.9z"/>
			<path fill="#0D290E" d="M177.5,23.7c3.1,0,8.7,4.4,10.9,7c10.3,12.4,23.4,44,6.8,62.5c-5,5.5-10.9,7-15.7,7c-5.2,0-9-1.7-9-1.7
				l-3.9-27.9c0,0,11.8-30.5,9.2-41.5C174.8,25.1,175.8,23.7,177.5,23.7 M177.5,20.1L177.5,20.1c-1.8,0-3.4,0.7-4.4,2
				c-1.4,1.8-1.7,4.3-0.9,7.8c1.7,7.2-4.7,28-9.1,39.4l-0.3,0.9l0.1,0.9l3.9,27.9l0.3,2l1.9,0.8c0.2,0.1,4.6,1.9,10.5,1.9
				c7.2,0,13.6-2.8,18.4-8.2c8.1-9,10.7-21.7,7.6-36.7c-2.8-13.2-9.4-24.7-14.2-30.5C189.3,26.2,182.7,20.1,177.5,20.1L177.5,20.1z"
				/>
		</g>
		<g>
			<path fill="#99AF74" d="M147.4,132h-2.3l0.6-2.2c1.7-6.4,6.1-10,8.2-11.4l-1.4-12.3L177,93.5l3.4,38.2l-1.9,0
				c-14.8,0.2-20.8,0.3-24.8,0.3C152.5,132,148.4,132,147.4,132z"/>
			<path fill="#0D290E" d="M175.5,96.3l3,33.6c-14.2,0.2-20.5,0.3-24.8,0.3c-2.4,0-4.2,0-6.4,0c2-7.5,8.3-11,8.3-11l-1.4-12.2
				L175.5,96.3 M178.5,90.8l-4.7,2.4l-21.1,10.7l-2.2,1.1l0.3,2.5l1.1,10.1c-2.5,1.9-6.4,5.7-8,11.8l-1.2,4.5h4.6c1.1,0,2,0,3,0
				c1,0,2.1,0,3.4,0c4,0,10,0,24.8-0.3l3.8-0.1l-0.3-3.8L179,96L178.5,90.8L178.5,90.8z"/>
		</g>
		<g>
			<path fill="#99AF74" d="M101.6,131.9c-6.3,0-12.1-0.1-17.3-0.3l-2.7-0.1l1.1-2.4c3.3-7,9.5-10.7,12.2-12l-2.2-21.5h27.8
				l-2.7,36.1l-1.6,0C116.2,131.7,109.9,131.9,101.6,131.9L101.6,131.9z"/>
			<path fill="#0D290E" d="M118.6,97.4l-2.4,32.5c0,0-6.2,0.2-14.6,0.2c-5.2,0-11.3-0.1-17.2-0.3c3.9-8.3,12.5-11.6,12.5-11.6
				l-2.2-20.8H118.6 M122.5,93.8h-3.8H94.7h-4l0.4,3.9l1.9,18.3c-3.3,1.8-8.9,5.6-12,12.2l-2.3,4.9l5.4,0.2
				c5.2,0.2,11.1,0.3,17.3,0.3c8.4,0,14.7-0.2,14.7-0.2l3.2-0.1l0.2-3.2l2.4-32.5L122.5,93.8L122.5,93.8z"/>
		</g>
		<g>
			<path fill="#99AF74" d="M95.1,130.7c-0.1,0-11.5-3.9-26.1-9.5l-2.7-1l2.1-1.9c5.9-5.5,12-6.3,14.5-6.3l4.5-17.6l30.2,11.3
				l-21.4,25.5L95.1,130.7z"/>
			<path fill="#0D290E" d="M88.7,96.7l25.9,9.7l-19,22.7c0,0-11.3-3.9-26-9.5c5.5-5.2,11.1-5.8,13.5-5.8c0.8,0,1.2,0.1,1.2,0.1
				L88.7,96.7 M86.2,91.9l-1,3.9l-3.7,14.4c-3.5,0.3-8.9,1.7-14.3,6.7l-4.2,3.9l5.3,2c14.6,5.6,26,9.5,26.1,9.5l2.3,0.8l1.6-1.9
				l19-22.7l3.2-3.9l-4.7-1.8l-25.9-9.7L86.2,91.9L86.2,91.9z"/>
		</g>
		<g>
			<path fill="#99AF74" d="M165.7,130.8c-0.1,0-13.4-0.4-27.9-2l-2.1-0.2l0.5-2c1.7-6.5,7.4-8.4,10.9-9l-7.2-14.4l31.2-9.1
				l-3.8,36.8L165.7,130.8z"/>
			<path fill="#0D290E" d="M169.2,96.5l-3.4,32.5c0,0-13.2-0.4-27.7-2c2-7.5,10.3-7.9,11.7-7.9c0.1,0,0.2,0,0.2,0l-7.5-14.9
				L169.2,96.5 M173.3,91.6l-5.1,1.5l-26.6,7.8l-4.1,1.2l1.9,3.8l5.2,10.5c-4.3,1.3-8.5,4.2-10,9.8l-1.1,4l4.1,0.4
				c14.5,1.5,27.9,2,28,2l3.3,0.1l0.3-3.3l3.4-32.5L173.3,91.6L173.3,91.6z"/>
		</g>
		<g>
			<path fill="#99AF74" d="M128.9,117c-25.9,0-49.4-8-59-20.1c-5.2,0.8-11.5,1.2-18.7,1.2c-15,0-30.4-1.9-33.8-2.9
				c-2.3-0.7-3.2-2.1-3.7-3.2c-0.9-2.2-0.2-4.8,0.5-6.6c-0.8-0.4-1.8-1-2.6-2c-2.3-2.6-3.2-6.7-2.8-12.2
				c0.8-8.7,15.4-14.9,44.7-18.9c0.4-10.6,6.1-18.7,13.3-18.7c4.6,0,8.7,3.4,11.1,8.8c2.4-3.1,5.4-4.8,8.7-4.8
				c6.7,0,12.3,7.5,13.3,17.4c8.9-2.3,18.9-3.5,29-3.5c35.8,0,63.8,14.3,63.8,32.7S164.7,117,128.9,117z"/>
			<path fill="#0D290E" d="M66.9,35.5c4.8,0,8.9,4.6,10.6,11.2c2.1-4.3,5.4-7.1,9.1-7.1c6.2,0,11.3,7.9,11.7,17.9
				c9-2.6,19.5-4,30.6-4c34.3,0,62,13.8,62,30.9c0,17.1-27.8,30.9-62,30.9c-26.8,0-49.6-8.4-58.3-20.3c-5.9,1-12.7,1.4-19.5,1.4
				c-15.2,0-30.2-1.9-33.3-2.8c-5.6-1.7-1.1-9.2-1.1-9.2S9.5,84,10.7,71.4c1-11.3,32.1-15.9,44.7-17.5c0-0.2,0-0.3,0-0.5
				C55.4,43.5,60.5,35.5,66.9,35.5 M66.9,31.9c-7.8,0-14.1,8.1-15,18.9C22.2,55,8,61.4,7.1,71.1c-0.5,6,0.5,10.5,3.2,13.5
				c0.6,0.7,1.2,1.2,1.8,1.6c-0.6,1.9-0.9,4.3,0,6.4c0.6,1.5,1.9,3.4,4.8,4.3c3.4,1,18.5,3,34.3,3c6.8,0,12.8-0.4,18-1.1
				c10.5,12.2,33.6,20,59.8,20c36.8,0,65.6-15.1,65.6-34.5c0-19.3-28.8-34.5-65.6-34.5c-9.5,0-18.9,1.1-27.5,3.1
				c-1.6-9.9-7.5-17-14.8-17c-3,0-5.8,1.2-8.2,3.5C75.6,34.7,71.4,31.9,66.9,31.9L66.9,31.9z"/>
		</g>
		
			<radialGradient id="SVGID_19_" cx="63.1957" cy="54.3491" r="6.263" gradientTransform="matrix(1 0 0 1.5117 0 -27.8132)" gradientUnits="userSpaceOnUse">
			<stop  offset="0.9816" style="stop-color:#000000"/>
			<stop  offset="1" style="stop-color:#FFFFFF"/>
		</radialGradient>
		
			<ellipse fill="url(#SVGID_19_)" stroke="#000000" stroke-width="1.1898" stroke-miterlimit="5" cx="65.3" cy="51.6" rx="7.4" ry="11.1"/>
		
			<radialGradient id="SVGID_20_" cx="82.233" cy="58.5794" r="6.263" gradientTransform="matrix(1 0 0 1.5117 0 -29.978)" gradientUnits="userSpaceOnUse">
			<stop  offset="0.9816" style="stop-color:#000000"/>
			<stop  offset="1" style="stop-color:#FFFFFF"/>
		</radialGradient>
		
			<ellipse fill="url(#SVGID_20_)" stroke="#000000" stroke-width="1.1898" stroke-miterlimit="5" cx="84.3" cy="55.9" rx="7.4" ry="11.1"/>
		<path fill="#99AF74" d="M55.4,53.9c2.7-0.3,16.1,4.8,17.3,7.4c1.2,2.5-11.9,8.5-14.7,5.7C55.2,64.1,55.4,53.9,55.4,53.9z"/>
		<path d="M86.1,74.9c-0.9-2.1-3.9-1.3-3.4,0.9c1.5,7-10.4,3.9-13.8,2.2c-0.7-0.3-1.6-0.3-2.2,0.3c-1.3,1.5-2.6,3.8-3.9,5.2
			c-1.7-2-6.4-6.6-6.8-6.2c-1.3,1.4-3.2,3.2-4.3,4.7c-1-1.6-2-3.2-3.2-4.7c-0.6-0.7-0.9-0.7-1.6,0c-1.9,1.9-4.4,4.1-6.1,6.2
			c-1.2-2-5-6.8-5.7-6.4c-2.6,1.7-4.9,4.2-6.9,6.3c-0.7-1.2-3.5-4.8-4.2-4.4c-2.7,1.5-5.5,2.9-8.3,4.2c-2.1,0.9-0.3,4,1.8,3.1
			c2.3-1,4.4-2.1,6.6-3.2c0.7,1.4,2.4,3.1,3.3,4.4c0.7,1,0.9,0.8,1.8,0c2.2-1.9,3.9-4.4,6.1-6.2c1.4,2,3.5,4.3,4.8,6.3
			c0.6,0.9,1.1,1.2,1.9,0.2c1.8-2.1,3.3-4.4,5.2-6.5c1,1.5,3.6,4.7,5.1,5c1.1-0.9,4.5-5.3,5.2-5.5c0.7,0.6,5.8,6.4,6.5,5.6
			c1.5-1.6,3-3.2,4.5-4.8C75.3,84.4,90.5,85.4,86.1,74.9z"/>
		<g opacity="0.52">
			<g>
				<path d="M16.1,68c0.2-0.3,0.4-0.6,0.6-0.7c0.2-0.1,0.4-0.1,0.6-0.1c0.2,0,0.3,0.2,0.4,0.3c0.2,0.5,0,1.1,0.2,1.7
					c0.3,0.9,1.3,0.9,1.8,0.2c1.1-1.5-0.2-3.7-1.8-4.2c-1.5-0.4-3.2,0.6-3.4,2.1C14.4,68.2,15.6,68.9,16.1,68L16.1,68z"/>
			</g>
		</g>
		<g opacity="0.52">
			<g>
				<path d="M22.1,72.9c0.3-0.7,1.1-2,2-1.5c1,0.5,1.1,1.9,2.1,2.4c0.4,0.2,0.9,0.2,1.1-0.3c0.8-1.7-1.2-3.7-2.8-4.2
					c-1.9-0.5-3.4,1.1-4.1,2.7C19.9,73.1,21.5,74,22.1,72.9L22.1,72.9z"/>
			</g>
		</g>
		<g opacity="0.52">
			<g>
				<path d="M108.3,63.5c2.1-1.7,4.4-2.2,6.9-1c1.8,0.8,2.7,2.6,4.4,3.5c0.6,0.3,1.3-0.2,1.1-0.8c-0.7-2.5-3.7-4.2-6-4.9
					c-2.8-0.9-5.4,0.3-7.4,2.2C106.6,63.1,107.6,64,108.3,63.5L108.3,63.5z"/>
			</g>
		</g>
		<g opacity="0.52">
			<g>
				<path d="M128.6,58.5c0.7-1.3,1.6-1.5,2.8-0.7c1.1,0.7,1.5,1.8,2.3,2.7c0.4,0.4,1.3,0.1,1.3-0.5c-0.2-1.8-2-3.5-3.6-4.1
					c-1.9-0.7-3.3,0.3-4,2.2C127.1,58.7,128.2,59.2,128.6,58.5L128.6,58.5z"/>
			</g>
		</g>
		<g opacity="0.52">
			<g>
				<path d="M143,63.6c1.2-1,2.6-1.8,4.2-1.9c1.9-0.2,3.1,1.2,4.2,2.6c0.8,0.9,2.2-0.3,1.6-1.3c-2.5-4.6-7.7-3.9-11-0.7
					C141.4,63,142.3,64.2,143,63.6L143,63.6z"/>
			</g>
		</g>
		<path fill-opacity="0.23" d="M96.8,78.1c-7.1,18.1-54.4,13.4-64.5,13.4c-9,0-15.3,0-17.1-2.1c-0.1,1.7,0.5,3.4,2.8,4.1
			c4.4,1.3,33.7,4.7,52.7,1.4C77.2,92.7,98.3,91.8,96.8,78.1z"/>
		<path opacity="0.72" fill-opacity="0.23" d="M185.7,71.8c-3.4,16.1-29.9,25.7-57.6,28.1c-29.4,2.6-43.7-8.4-43.7-8.4h0
			c-5.3,1.6-10.9,2.4-13.7,3.3c8.7,11.8,31.5,20.3,58.3,20.3c21.1,0,39.8-5.3,51-13.3c1.5-1.2,3-2.4,4.3-3.6c4.3-4.2,6.7-9,6.7-14
			C191,79.9,189.1,75.7,185.7,71.8z"/>
	</g>
</g>
</svg>
